<?xml version="1.0" encoding="UTF-8" standalone="no"?>
<!-- Created with Inkscape (http://www.inkscape.org/) -->

<svg
   width="450.85419mm"
   height="15.187623mm"
   viewBox="0 0 450.85419 15.187623"
   version="1.1"
   id="svg808"
   inkscape:version="1.1.2 (0a00cf5339, 2022-02-04, custom)"
   sodipodi:docname="divider.svg"
   xmlns:inkscape="http://www.inkscape.org/namespaces/inkscape"
   xmlns:sodipodi="http://sodipodi.sourceforge.net/DTD/sodipodi-0.dtd"
   xmlns="http://www.w3.org/2000/svg"
   xmlns:svg="http://www.w3.org/2000/svg">
  <sodipodi:namedview
     id="namedview810"
     pagecolor="#ffffff"
     bordercolor="#666666"
     borderopacity="1.0"
     inkscape:pageshadow="2"
     inkscape:pageopacity="0.0"
     inkscape:pagecheckerboard="true"
     inkscape:document-units="mm"
     showgrid="false"
     fit-margin-top="0"
     fit-margin-left="0"
     fit-margin-right="0"
     fit-margin-bottom="0"
     showborder="false"
     inkscape:zoom="0.54876543"
     inkscape:cx="581.30484"
     inkscape:cy="43.734533"
     inkscape:window-width="1440"
     inkscape:window-height="849"
     inkscape:window-x="0"
     inkscape:window-y="27"
     inkscape:window-maximized="1"
     inkscape:current-layer="layer1" />
  <defs
     id="defs805">
    <clipPath
       id="id2">
      <path
         d="m 597,403 h 115 v 23.69922 H 597 Z m 0,0"
         clip-rule="nonzero"
         id="path5" />
    </clipPath>
    <clipPath
       id="id1">
      <path
         d="M 593,383.19922 H 721 V 421 H 593 Z m 0,0"
         clip-rule="nonzero"
         id="path2" />
    </clipPath>
    <clipPath
       id="id3">
      <path
         d="M 536.40625,391 H 650 v 30 H 536.40625 Z m 0,0"
         clip-rule="nonzero"
         id="path8" />
    </clipPath>
    <clipPath
       id="id5">
      <path
         d="m 728,403 h 116 v 23.69922 H 728 Z m 0,0"
         clip-rule="nonzero"
         id="path14" />
    </clipPath>
    <clipPath
       id="id4">
      <path
         d="M 720,383.19922 H 847 V 421 H 720 Z m 0,0"
         clip-rule="nonzero"
         id="path11" />
    </clipPath>
    <clipPath
       id="id6">
      <path
         d="m 790,391 h 113.90625 v 30 H 790 Z m 0,0"
         clip-rule="nonzero"
         id="path17" />
    </clipPath>
  </defs>
  <g
     inkscape:label="Layer 1"
     inkscape:groupmode="layer"
     id="layer1"
     transform="translate(119.00238,-136.98246)">
    <g
       clip-path="url(#id1)"
       id="g32"
       transform="matrix(0.35277777,0,0,0.35277777,-147.57738,1.6840628)">
      <path
         fill="#403028"
         d="m 720.14453,411.81641 c -0.0625,-4.13672 -1.35547,-8.47266 -4.40625,-11.17969 -0.36719,-0.34375 -0.8125,-0.59766 -1.20703,-0.90625 -0.42188,-0.26953 -0.88672,-0.46485 -1.32813,-0.70703 -0.92968,-0.375 -1.875,-0.67188 -2.91015,-0.91016 -2.02344,-0.5 -4.04688,-0.88672 -6.08985,-1.03906 -4.08203,-0.31641 -8.17187,0.34765 -12.15625,1.43359 -3.98437,1.08985 -7.90234,2.49219 -11.76171,4.06641 -3.84375,1.60156 -7.66016,3.29297 -11.44141,5.07812 -3.75,1.77344 -7.62109,3.64453 -11.55859,5.19532 -7.89063,3.13671 -16.09375,5.50781 -24.5,6.9414 -4.21094,0.6875 -8.47266,1.125 -12.77344,1.14844 -4.28906,0.0273 -8.64453,-0.31641 -12.88672,-1.5 -4.17969,-1.17969 -8.48438,-3.36719 -11.12109,-7.27734 -1.32032,-1.92579 -2.02344,-4.19141 -2.3711,-6.375 -0.36328,-2.21485 -0.26562,-4.52735 0.28125,-6.71485 1.07422,-4.40234 3.92188,-8.16406 7.44922,-10.75 3.54688,-2.58984 7.75,-4.14453 12.04297,-4.66406 4.30469,-0.44141 8.73437,0.20312 12.58984,2.09766 1.91407,0.95312 3.67969,2.1914 5.22657,3.64062 1.51562,1.48828 2.76953,3.19922 3.85156,4.99219 -1.21485,-1.71094 -2.58203,-3.30469 -4.16797,-4.64453 -1.59766,-1.32813 -3.36328,-2.42969 -5.25391,-3.24219 -3.79687,-1.61328 -8.02734,-1.97266 -12.03906,-1.33984 -4.01172,0.66796 -7.875,2.27734 -11.01562,4.77343 -3.11719,2.48828 -5.51954,5.87891 -6.32032,9.67969 -0.41015,1.88672 -0.44531,3.85156 -0.0703,5.75781 0.35938,1.92969 0.96094,3.74219 2.05078,5.26172 2.14844,3.09375 5.81641,4.97266 9.65625,5.97656 3.8711,1.01954 7.97266,1.36329 12.07031,1.30079 4.10157,-0.043 8.21875,-0.49219 12.29297,-1.17579 8.16407,-1.33593 16.1875,-3.63671 23.9375,-6.60937 3.90235,-1.46094 7.625,-3.18359 11.4961,-4.93359 3.83203,-1.7461 7.74218,-3.35157 11.69531,-4.85938 3.96094,-1.47266 7.99219,-2.83203 12.15625,-3.78516 4.14453,-0.95312 8.49219,-1.5039 12.79297,-0.97656 2.14062,0.27735 4.22656,0.80078 6.25,1.42188 1,0.28515 2.04297,0.67187 3.03125,1.14453 0.46484,0.28515 0.96094,0.53125 1.40234,0.84765 0.41797,0.35547 0.87891,0.66016 1.25391,1.05469 3.15625,3.11328 4.10937,7.64844 3.85156,11.77735"
         fill-opacity="1"
         fill-rule="nonzero"
         id="path30" />
    </g>
    <g
       clip-path="url(#id2)"
       id="g36"
       transform="matrix(0.35277777,0,0,0.35277777,-147.57738,1.6840628)">
      <path
         fill="#403028"
         d="m 711.85547,406.45703 c -2.44531,-0.61719 -4.91016,-1.15625 -7.38281,-1.35547 -2.48047,-0.20312 -4.96094,-0.0547 -7.39844,0.36719 -4.89453,0.73828 -9.64453,2.33203 -14.33203,4.00781 -4.67969,1.72656 -9.31641,3.625 -13.88672,5.66797 -4.54688,2.01953 -9.3125,4.05859 -14.11719,5.67969 -9.66016,3.19922 -19.71875,5.39844 -29.95703,5.71484 -5.10547,0.15625 -10.27344,-0.17969 -15.25781,-1.48047 -2.47657,-0.67968 -4.90235,-1.60937 -7.10938,-2.93359 -2.19922,-1.32422 -4.125,-3.14063 -5.37109,-5.33594 1.53515,2.00781 3.5664,3.51953 5.76562,4.61719 2.23047,1.07031 4.625,1.74219 7.05469,2.17187 4.85547,0.90235 9.85156,0.90235 14.79688,0.54688 4.9414,-0.39453 9.86718,-1.13281 14.71875,-2.23047 4.85937,-1.05078 9.65625,-2.40234 14.36328,-4.00391 2.35547,-0.79687 4.70703,-1.625 7.01562,-2.55468 2.30078,-0.90625 4.58985,-1.92578 6.94531,-2.88282 4.6836,-1.90625 9.39844,-3.76953 14.26172,-5.25781 4.84375,-1.50781 9.8086,-2.82812 14.9375,-3.22656 5.13282,-0.46875 10.32813,0.51562 14.95313,2.48828"
         fill-opacity="1"
         fill-rule="nonzero"
         id="path34" />
    </g>
    <g
       clip-path="url(#id3)"
       id="g40"
       transform="matrix(0.35277777,0,0,0.35277777,-147.57738,1.6840628)">
      <path
         fill="#403028"
         d="m 649.44531,407.94141 c -1.07812,-1.41797 -2.32812,-2.73438 -3.84375,-3.60547 -1.50781,-0.88672 -3.22265,-1.33203 -4.96094,-1.42188 -3.49218,-0.20312 -6.98828,0.58594 -10.40234,1.44922 -3.42969,0.89063 -6.8125,1.98438 -10.16797,3.16797 -3.36719,1.15234 -6.70703,2.39062 -10.03906,3.66797 -13.41016,5.19922 -27.59375,8.6914 -42.08203,9.62109 -3.625,0.19531 -7.27735,0.21094 -10.92969,-0.0859 -3.64844,-0.3125 -7.33203,-0.86718 -10.87891,-2.21093 -1.76953,-0.67578 -3.50781,-1.55078 -5.07031,-2.77735 -1.55078,-1.21875 -2.90234,-2.875 -3.61328,-4.8164 -0.69141,-1.84375 -0.99219,-3.91797 -0.65625,-5.91407 0.3125,-2.00781 1.20703,-3.85937 2.39453,-5.39843 2.41406,-3.07813 5.75781,-5.0625 9.21094,-6.36328 3.47266,-1.28516 7.14844,-1.92188 10.8125,-1.92188 3.66016,0.0234 7.32812,0.67578 10.68359,2.09375 3.35938,1.39844 6.35157,3.66406 8.46094,6.55469 -2.36719,-2.6875 -5.44531,-4.63672 -8.75,-5.80078 -3.32422,-1.16407 -6.875,-1.5586 -10.35547,-1.35938 -3.48047,0.19141 -6.9375,0.9375 -10.10937,2.28906 -3.14063,1.35938 -6.1211,3.27735 -8.03125,5.9336 -0.94532,1.3164 -1.58594,2.80078 -1.77344,4.33594 -0.1875,1.53515 0.043,3.10156 0.63672,4.58593 1.09375,2.85547 4.03515,4.72266 7.17187,5.83203 6.42188,2.19532 13.63282,2.32422 20.61719,1.94141 7.03516,-0.41016 14.05469,-1.48437 20.96484,-3.01953 6.9375,-1.48438 13.72657,-3.48828 20.44532,-5.86719 6.78125,-2.3164 13.61718,-4.55469 20.70312,-6.02734 3.53906,-0.66406 7.1836,-1.22266 10.84375,-0.76563 1.82031,0.22266 3.62891,0.82422 5.14453,1.86328 1.50391,1.0625 2.62891,2.51563 3.57422,4.01954"
         fill-opacity="1"
         fill-rule="nonzero"
         id="path38" />
    </g>
    <g
       clip-path="url(#id4)"
       id="g44"
       transform="matrix(0.35277777,0,0,0.35277777,-147.57738,1.6840628)">
      <path
         fill="#403028"
         d="m 720.17187,411.81641 c -0.25781,-4.12891 0.69141,-8.66407 3.85157,-11.77735 0.3789,-0.39453 0.83593,-0.69922 1.2539,-1.05469 0.4375,-0.3164 0.9336,-0.5625 1.40235,-0.84765 0.98437,-0.47266 2.03125,-0.85938 3.03125,-1.14453 2.02343,-0.6211 4.10937,-1.14453 6.24609,-1.42188 4.30469,-0.52734 8.65234,0.0234 12.79688,0.97656 4.16406,0.95313 8.1914,2.3125 12.15625,3.78516 3.94921,1.50781 7.86328,3.11328 11.69531,4.85938 3.87109,1.75 7.59375,3.47265 11.49609,4.93359 7.75,2.97266 15.77344,5.27344 23.9375,6.60937 4.07422,0.6836 8.19141,1.13282 12.29297,1.17579 4.09766,0.0625 8.19922,-0.28125 12.07031,-1.30079 3.83985,-1.0039 7.50391,-2.88281 9.65625,-5.97656 1.08985,-1.51953 1.69141,-3.33203 2.05078,-5.26172 0.375,-1.90625 0.34375,-3.87109 -0.0703,-5.75781 -0.80078,-3.80078 -3.20312,-7.19141 -6.32422,-9.67969 -3.13672,-2.49609 -7,-4.10547 -11.01172,-4.77343 -4.00781,-0.63282 -8.24218,-0.27344 -12.03906,1.33984 -1.89062,0.8125 -3.65625,1.91406 -5.2539,3.24219 -1.58985,1.33984 -2.95313,2.93359 -4.16797,4.64453 1.08203,-1.79297 2.33593,-3.50391 3.85547,-4.99219 1.54687,-1.44922 3.30468,-2.6875 5.22265,-3.64062 3.85547,-1.89454 8.28906,-2.53907 12.58985,-2.09766 4.29296,0.51953 8.49218,2.07422 12.04296,4.66406 3.52735,2.58594 6.3711,6.34766 7.44922,10.75 0.54688,2.1875 0.64453,4.5 0.28125,6.71485 -0.34765,2.18359 -1.05078,4.44921 -2.37109,6.375 -2.63672,3.91015 -6.94141,6.09765 -11.12109,7.27734 -4.24219,1.18359 -8.59766,1.52734 -12.88672,1.5 -4.30469,-0.0234 -8.5625,-0.46094 -12.77344,-1.14844 -8.40625,-1.43359 -16.60938,-3.80469 -24.5,-6.9414 -3.9375,-1.55079 -7.80859,-3.42188 -11.55859,-5.19532 -3.78125,-1.78515 -7.59375,-3.47656 -11.44141,-5.07812 -3.85938,-1.57422 -7.77734,-2.97656 -11.76563,-4.06641 -3.97656,-1.08594 -8.07031,-1.75 -12.15234,-1.43359 -2.03906,0.15234 -4.07031,0.53906 -6.09375,1.03906 -1.03125,0.23828 -1.97656,0.53516 -2.90625,0.91016 -0.44141,0.24218 -0.91016,0.4375 -1.32812,0.70703 -0.39844,0.30859 -0.83985,0.5625 -1.20704,0.90625 -3.05078,2.70703 -4.34375,7.04297 -4.40625,11.17969"
         fill-opacity="1"
         fill-rule="nonzero"
         id="path42" />
    </g>
    <g
       clip-path="url(#id5)"
       id="g48"
       transform="matrix(0.35277777,0,0,0.35277777,-147.57738,1.6840628)">
      <path
         fill="#403028"
         d="m 728.46094,406.45703 c 4.62109,-1.97266 9.82031,-2.95703 14.94922,-2.48828 5.13281,0.39844 10.09765,1.71875 14.9414,3.22656 4.86328,1.48828 9.57813,3.35156 14.26172,5.25781 2.35547,0.95704 4.64063,1.97657 6.94922,2.88282 2.30469,0.92968 4.65234,1.75781 7.00781,2.55468 4.71094,1.60157 9.50781,2.95313 14.36719,4.00391 4.85156,1.09766 9.77734,1.83594 14.72266,2.23047 4.9375,0.35547 9.9375,0.35547 14.79296,-0.54688 2.42969,-0.42968 4.82422,-1.10156 7.05469,-2.17187 2.19922,-1.09766 4.23047,-2.60938 5.76563,-4.61719 -1.25,2.19531 -3.17578,4.01172 -5.3711,5.33594 -2.20703,1.32422 -4.63281,2.25391 -7.11328,2.93359 -4.98047,1.30078 -10.15234,1.63672 -15.2539,1.48047 -10.23438,-0.3164 -20.29688,-2.51562 -29.95704,-5.71484 -4.80468,-1.6211 -9.57031,-3.66016 -14.11718,-5.67969 -4.57422,-2.04297 -9.20703,-3.94141 -13.88672,-5.66797 -4.6875,-1.67578 -9.4375,-3.26953 -14.33203,-4.00781 -2.4375,-0.42188 -4.92188,-0.57031 -7.39844,-0.36719 -2.47266,0.19922 -4.9375,0.73828 -7.38281,1.35547"
         fill-opacity="1"
         fill-rule="nonzero"
         id="path46" />
    </g>
    <g
       clip-path="url(#id6)"
       id="g52"
       transform="matrix(0.35277777,0,0,0.35277777,-147.57738,1.6840628)">
      <path
         fill="#403028"
         d="m 790.87109,407.94141 c 0.94141,-1.50391 2.06641,-2.95704 3.57422,-4.01954 1.51563,-1.03906 3.32422,-1.64062 5.14453,-1.86328 3.66016,-0.45703 7.30469,0.10157 10.84766,0.76563 7.07812,1.47265 13.91797,3.71094 20.70312,6.02734 6.71094,2.37891 13.50391,4.38281 20.4375,5.86719 6.91407,1.53516 13.9336,2.60937 20.96875,3.01953 6.98438,0.38281 14.19532,0.25391 20.61719,-1.94141 3.13672,-1.10937 6.07813,-2.97656 7.17188,-5.83203 0.59375,-1.48437 0.82812,-3.05078 0.63672,-4.58593 -0.1875,-1.53516 -0.82813,-3.01954 -1.77344,-4.33594 -1.91406,-2.65625 -4.89063,-4.57422 -8.02735,-5.9336 -3.17578,-1.35156 -6.63281,-2.09765 -10.11328,-2.28906 -3.48047,-0.19922 -7.03125,0.19531 -10.35156,1.35938 -3.30859,1.16406 -6.38281,3.11328 -8.75391,5.80078 2.10938,-2.89063 5.10157,-5.15625 8.46094,-6.55469 3.35547,-1.41797 7.02344,-2.07031 10.67969,-2.09375 3.66797,0 7.34375,0.63672 10.82031,1.92188 3.44922,1.30078 6.79297,3.28515 9.20703,6.36328 1.1836,1.53906 2.08203,3.39062 2.39453,5.39843 0.33594,1.9961 0.0312,4.07032 -0.65625,5.91407 -0.70703,1.9414 -2.0625,3.59765 -3.61328,4.8164 -1.5625,1.22657 -3.30468,2.10157 -5.0664,2.77735 -3.55078,1.34375 -7.23828,1.89843 -10.88282,2.21093 -3.65625,0.29688 -7.30468,0.28125 -10.92968,0.0859 -14.49219,-0.92969 -28.67188,-4.42187 -42.08203,-9.62109 -3.33204,-1.27735 -6.67188,-2.51563 -10.03907,-3.66797 -3.35547,-1.18359 -6.73828,-2.27734 -10.16797,-3.16797 -3.41406,-0.86328 -6.91406,-1.65234 -10.40234,-1.44922 -1.73828,0.0899 -3.45312,0.53516 -4.96094,1.42188 -1.51562,0.87109 -2.76172,2.1875 -3.84375,3.60547"
         fill-opacity="1"
         fill-rule="nonzero"
         id="path50" />
    </g>
    <path
       fill="#403028"
       d="m 106.47774,140.25958 c 0,0 -2.09599,4.01974 -4.65915,4.45244 2.56316,0.43271 4.65915,4.45107 4.65915,4.45107 0,0 2.09738,-4.01836 4.65915,-4.45107 -2.56177,-0.4327 -4.65915,-4.45244 -4.65915,-4.45244"
       fill-opacity="1"
       fill-rule="nonzero"
       id="path54"
       style="stroke-width:0.352778" />
    <path
       stroke-linecap="round"
       fill="none"
       stroke-linejoin="miter"
       d="M -118.6055,144.55906 H 331.45493"
       stroke="#403028"
       stroke-width="0.793754"
       stroke-opacity="1"
       stroke-miterlimit="4"
       id="path56" />
  </g>
</svg>
