<?xml version="1.0" encoding="UTF-8" standalone="no"?>
<!-- Created using Krita: https://krita.org -->

<svg
   width="184.33986pt"
   height="226.42589pt"
   viewBox="0 0 184.33986 226.42589"
   version="1.1"
   id="svg306"
   sodipodi:docname="column.svg"
   inkscape:version="1.2.1 (9c6d41e410, 2022-07-14)"
   xmlns:inkscape="http://www.inkscape.org/namespaces/inkscape"
   xmlns:sodipodi="http://sodipodi.sourceforge.net/DTD/sodipodi-0.dtd"
   xmlns="http://www.w3.org/2000/svg"
   xmlns:svg="http://www.w3.org/2000/svg">
  <sodipodi:namedview
     id="namedview308"
     pagecolor="#939393"
     bordercolor="#666666"
     borderopacity="1.0"
     inkscape:showpageshadow="2"
     inkscape:pageopacity="0"
     inkscape:pagecheckerboard="0"
     inkscape:deskcolor="#d1d1d1"
     inkscape:document-units="pt"
     showgrid="false"
     inkscape:zoom="0.82877398"
     inkscape:cx="305.8735"
     inkscape:cy="368.01349"
     inkscape:window-width="1440"
     inkscape:window-height="849"
     inkscape:window-x="0"
     inkscape:window-y="27"
     inkscape:window-maximized="1"
     inkscape:current-layer="svg306" />
  <defs
     id="defs2" />
  <path
     id="shape298"
     fill="#000000"
     d="M 2.6482761,4.49698 C 2.6407031,4.44278 2.6348781,4.4011 2.6308001,4.37191 2.6268491,4.34364 2.6455241,4.30289 2.6195101,4.29112 2.5827151,4.27448 2.5250289,4.27362 2.4464531,4.28853 l 1e-7,-1 C 6.8724831,2.96676 10.279413,2.77547 12.667253,2.71468 c 3.7192,-0.09469 6.9093,0.03002 10.6296,0.04303 0.6886,0.0024 1.2788,0.00933 1.9673,0.00102 3.9845,-0.04808 7.4012,-0.03574 11.384,-0.16213 0.443,-0.01406 0.8093,-0.15015 1.2436,-0.23858 1.4119,-0.28746 2.6157,-0.56568 4.031,-0.83539 2.1216,-0.40429 3.922,-0.90409602 6.0737,-1.09016702 2.5063,-0.21673 4.6728,0.017314 7.1873,-0.056577 1.8063,-0.053079 3.3478,-0.249661 5.154,-0.3060773 1.9078,-0.0595905 3.5466,-0.109047 5.4535,-0.0252454 0.2753,0.0120965 0.4563,0.2583837 0.7291,0.2969467 1.1934,0.168687 2.2288,0.208459 3.4312,0.291118 1.4749,0.101392 2.7391,0.224797 4.2175,0.234688 3.7673,0.025207 6.9962,-0.070889 10.763,-0.134454 2.3033,-0.038868 4.2766,-0.196532 6.5799,-0.158207 0.5889,0.009799 1.0828,0.162711 1.6567,0.295257 0.1568,0.036219 0.3099,0.06828 0.4211,0.18465802 0.1125,0.11772 0.1323,0.27472 0.1692,0.43329 0.0327,0.14057 -0.003,0.27034 0.0273,0.41144 0.0268,0.12482 0.0687,0.22957 0.1341,0.33924 0.0503,0.08436 0.0986,0.17202 0.1908,0.20576 0.2358,0.08629 0.4559,0.11853 0.707,0.12268 0.3198,0.00529 0.6017,-0.00659 0.9089,-0.09595 0.2912,-0.08472 0.4936,-0.27315 0.7721,-0.39314 0.2681,-0.11548 0.5044,-0.20232 0.7862,-0.2782 0.1465,-0.03945 0.2795,-0.06191 0.4307,-0.04941 0.3839,0.03171 0.7015,0.18021 1.0866,0.17475 1.820197,-0.02584 3.375497,-0.19034 5.194797,-0.26391 0.889,-0.036 1.66,-0.15837 2.543,-0.04909 0.422,0.05208 0.713,0.33817 1.105,0.50019 0.322,0.13286 0.59,0.28611 0.934,0.34175 0.775,0.12557 1.452,0.15098 2.237,0.17187 1.501,0.03996 2.792,-0.08807 4.291,0.00189 1.338,0.08029 2.459,0.45236 3.799,0.48357 7.939,0.18497 14.749,0.05952 22.69,0.13355 0.88,0.0082 1.632,0.0877 2.512,0.1014 3.089,0.04811 5.743,-0.1116 8.827,0.07518 0.953,0.05772 1.707,0.52531 2.657,0.62031 2.458,0.24576 4.583,0.20593 7.049,0.35012 0.326,0.01904 0.607,0.04662 0.926,0.11611 0.073,0.01604 0.103,0.10543 0.176,0.12389 0.137,0.03481 0.267,0.05696 0.405,0.02302 0.604,-0.14857 1.087,-0.40175 1.694,-0.53924 0.717,-0.16263 1.343,-0.29054 2.078,-0.3156 2.336,-0.07957 4.34,0.01158 6.677,0.01728 0.27,6.6e-4 0.502,-0.00702 0.773,8.9e-4 0.177,0.00518 0.328,0.02001 0.504,0.03648 0.157,0.01469 0.29,0.05435 0.448,0.05251 0.936,-0.01092 1.738,-0.05779 2.674,-0.08891 0,0 0,0 10e-4,-1e-5 v 1 h -0.079 v -1 h 0.079 v 1 c -10e-4,1e-5 -10e-4,1e-5 -10e-4,1e-5 -0.936,0.03112 -1.738,0.07799 -2.674,0.08891 -0.158,0.00184 -0.291,-0.03782 -0.448,-0.05251 -0.176,-0.01647 -0.327,-0.0313 -0.504,-0.03648 -0.271,-0.00791 -0.503,-2.3e-4 -0.773,-8.9e-4 -2.337,-0.0057 -4.341,-0.09685 -6.677,-0.01728 -0.735,0.02506 -1.361,0.15297 -2.078,0.3156 -0.607,0.13749 -1.09,0.39067 -1.694,0.53924 -0.138,0.03394 -0.268,0.01179 -0.405,-0.02302 -0.073,-0.01846 -0.103,-0.10785 -0.176,-0.12389 -0.319,-0.06949 -0.6,-0.09707 -0.926,-0.11611 -2.466,-0.14419 -4.591,-0.10436 -7.049,-0.35012 -0.95,-0.095 -1.704,-0.56259 -2.657,-0.62031 -3.084,-0.18678 -5.738,-0.02707 -8.827,-0.07518 -0.88,-0.0137 -1.632,-0.0932 -2.512,-0.1014 -7.941,-0.07403 -14.751,0.05142 -22.69,-0.13355 -1.34,-0.03121 -2.461,-0.40328 -3.799,-0.48357 -1.499,-0.08996 -2.79,0.03807 -4.291,-0.00189 -0.785,-0.02089 -1.462,-0.0463 -2.237,-0.17187 -0.344,-0.05564 -0.612,-0.20889 -0.934,-0.34175 -0.392,-0.16202 -0.683,-0.44811 -1.105,-0.50019 -0.883,-0.10928 -1.654,0.01309 -2.543,0.04909 -1.8193,0.07357 -3.3746,0.23807 -5.194797,0.26391 -0.3851,0.00546 -0.7027,-0.14304 -1.0866,-0.17475 -0.1512,-0.0125 -0.2842,0.00996 -0.4307,0.04941 -0.2818,0.07588 -0.5181,0.16272 -0.7862,0.2782 -0.2785,0.11999 -0.4809,0.30842 -0.7721,0.39314 -0.3072,0.08936 -0.5891,0.10124 -0.9089,0.09595 -0.2511,-0.00415 -0.4712,-0.03639 -0.707,-0.12268 -0.0922,-0.03374 -0.1405,-0.1214 -0.1908,-0.20576 -0.0654,-0.10967 -0.1073,-0.21442 -0.1341,-0.33924 -0.0303,-0.1411 0.0054,-0.27087 -0.0273,-0.41144 -0.0369,-0.15857 -0.0567,-0.31557 -0.1692,-0.43329 -0.1112,-0.11638 -0.2643,-0.14844 -0.4211,-0.18466 -0.5739,-0.13254 -1.0678,-0.28546 -1.6567,-0.29525 -2.3033,-0.03833 -4.2766,0.11933 -6.5799,0.1582 -3.7668,0.06357 -6.9957,0.15966 -10.763,0.13446 -1.4784,-0.0099 -2.7426,-0.1333 -4.2175,-0.23469 -1.2024,-0.08266 -2.2378,-0.12243 -3.4312,-0.29112 -0.2728,-0.03856 -0.4538,-0.28485 -0.7291,-0.29695 -1.9069,-0.083798 -3.5457,-0.03434 -5.4535,0.02525 -1.8062,0.05641 -3.3477,0.253 -5.154,0.30608 -2.5145,0.07389 -4.681,-0.16016 -7.1873,0.05657 -2.1517,0.18607 -3.9521,0.68588 -6.0737,1.09017 -1.4153,0.26971 -2.6191,0.54793 -4.031,0.83539 -0.4343,0.08843 -0.8006,0.22452 -1.2436,0.23858 -3.9828,0.12639 -7.3995,0.11405 -11.384,0.16213 -0.6885,0.00831 -1.2787,0.00138 -1.9673,-0.00102 -3.7203,-0.01301 -6.9104,-0.13772 -10.6296,-0.04303 -2.38784,0.06079 -5.7947699,0.25208 -10.2207999,0.57385 l 1e-7,-1 c 0.078576,-0.01491 0.1362619,-0.01405 0.1730579,0.00259 0.026014,0.01177 0.00734,0.05252 0.011289,0.08079 0.00408,0.02919 0.0099,0.07087 0.017476,0.12507 v 0 z" />
  <path
     id="shape299"
     fill="#000000"
     d="m 4.9174241,224.56461 c 0,0.33333 0,0.5 0,0.5 -0.02343,-0.0185 -0.04145,-0.0327 -0.05407,-0.0426 -0.01252,-0.01 -0.01983,-0.0284 -0.03577,-0.0282 -0.247466,0.004 -0.600709,0.019 -1.05973,0.0453 l 10e-8,-1 c 0.8407059,-0.17126 1.4908099,-0.27251 1.9502999,-0.30377 1.59057,-0.10819 2.95887,-0.11076 4.5528599,-0.13858 1.18641,-0.0207 2.20425,0.0376 3.39024,-1e-5 0.7433,-0.0235 1.3748,-0.14007 2.1177,-0.17447 0.92,-0.0426 1.7111,2.9e-4 2.6308,-0.0454 4.3827,-0.21753 8.1304,-0.61606 12.5175,-0.7065 1.1741,-0.0242 2.1692,0.22806 3.3336,0.37976 0.8131,0.10592 1.5012,0.25976 2.3154,0.35617 0.8198,0.0971 1.5269,0.13779 2.3503,0.19631 0.3069,0.0218 0.5727,-0.002 0.8783,0.0332 0.6606,0.0756 1.216,0.22749 1.8787,0.28249 1.0386,0.0862 1.9332,0.13806 2.9753,0.12036 1.0563,-0.0179 1.9539,-0.20526 3.0103,-0.22202 2.1997,-0.0349 4.0853,0.0632 6.2852,0.0746 3.8707,0.02 7.1887,0.0566 11.0593,0.015 1.395,-0.015 2.6017,0.0258 3.9821,-0.17664 0.8969,-0.13152 1.5849,-0.58776 2.473,-0.76985 0.9954,-0.20412 1.8687,-0.35098 2.8847,-0.32873 0.326,0.007 0.5383,0.27845 0.8366,0.41021 0.251,0.1109 0.4573,0.26966 0.7315,0.28244 2.2593,0.1053 4.2003,0.0782 6.462,0.0528 1.5954,-0.0179 2.9716,0.0183 4.5552,-0.17664 0.9861,-0.12142 1.7614,-0.58478 2.7455,-0.7222 1.7918,-0.2502 3.346,-0.36368 5.1551,-0.38102 1.9345,-0.0185 3.5871,0.20872 5.520396,0.27871 1.4754,0.0534 2.7471,-0.0584 4.2171,0.0738 0.5,0.0449 0.884,0.29485 1.368,0.42832 0.718,0.19832 1.32,0.49709 2.065,0.51928 0.91,0.0271 1.665,-0.33662 2.574,-0.38113 2.053,-0.1004 3.818,-0.11536 5.871,-0.032 2.059,0.0836 3.812,0.33905 5.865,0.50844 0.766,0.0631 1.424,0.0961 2.19,0.15593 0.665,0.052 1.233,0.13421 1.9,0.16363 2.233,0.0985 4.147,0.16175 6.382,0.20167 3.078,0.055 5.718,-0.0145 8.796,0.0695 0.833,0.0227 1.546,0.0994 2.368,0.23525 0.524,0.0866 0.943,0.29742 1.464,0.39837 1.43,0.27679 2.65,0.62741 4.105,0.67982 2.737,0.0985 5.088,-0.0649 7.82,-0.25039 1.277,-0.0867 2.343,-0.43505 3.619,-0.52644 3.273,-0.23428 6.087,-0.29246 9.366,-0.40309 0.547,-0.0185 1.017,0.0273 1.564,0.0344 2.384,0.0309 4.428,0.13437 6.811,0.0743 0.374,-0.009 0.663,-0.21546 1.033,-0.27208 0.617,-0.0946 1.155,-0.1047 1.778,-0.15865 0.276,-0.024 0.513,-0.0438 0.79,-0.064 0.256,-0.0186 0.476,-0.0256 0.732,-0.0468 0.221,-0.0183 0.409,-0.049 0.63,-0.0658 0.221,-0.0168 0.412,-0.0123 0.633,-0.0304 0.013,-0.001 0.022,-0.0121 0.027,-0.0237 0.006,-0.0136 0.01,-0.0345 0.012,-0.0627 v 1 l -0.11,-0.003 v -1 l 0.11,0.003 v 1 c -0.002,0.0283 -0.006,0.0492 -0.012,0.0627 -0.005,0.0115 -0.014,0.0226 -0.027,0.0237 -0.221,0.0181 -0.412,0.0135 -0.633,0.0304 -0.221,0.0169 -0.409,0.0476 -0.63,0.0658 -0.256,0.0212 -0.476,0.0282 -0.732,0.0468 -0.277,0.0201 -0.514,0.04 -0.79,0.064 -0.623,0.0539 -1.161,0.064 -1.778,0.15865 -0.37,0.0566 -0.659,0.26265 -1.033,0.27208 -2.383,0.0601 -4.427,-0.0434 -6.811,-0.0743 -0.547,-0.007 -1.017,-0.0528 -1.564,-0.0344 -3.279,0.11063 -6.093,0.16881 -9.366,0.40309 -1.276,0.0914 -2.342,0.43972 -3.619,0.52644 -2.732,0.18554 -5.083,0.34894 -7.82,0.25039 -1.455,-0.0524 -2.675,-0.40303 -4.105,-0.67982 -0.521,-0.10095 -0.94,-0.31172 -1.464,-0.39837 -0.822,-0.13585 -1.535,-0.21253 -2.368,-0.23525 -3.078,-0.084 -5.718,-0.0145 -8.796,-0.0695 -2.235,-0.0399 -4.149,-0.1032 -6.382,-0.20167 -0.667,-0.0294 -1.235,-0.11162 -1.9,-0.16363 -0.766,-0.0598 -1.424,-0.0928 -2.19,-0.15593 -2.053,-0.16939 -3.806,-0.42486 -5.865,-0.50844 -2.053,-0.0833 -3.818,-0.0684 -5.871,0.032 -0.909,0.0445 -1.664,0.40824 -2.574,0.38113 -0.745,-0.0222 -1.347,-0.32096 -2.065,-0.51928 -0.484,-0.13347 -0.868,-0.38341 -1.368,-0.42832 -1.47,-0.13221 -2.7417,-0.0204 -4.2171,-0.0738 -1.933296,-0.07 -3.585896,-0.29725 -5.520396,-0.27871 -1.8091,0.0173 -3.3633,0.13082 -5.1551,0.38102 -0.9841,0.13742 -1.7594,0.60078 -2.7455,0.7222 -1.5836,0.19496 -2.9598,0.15871 -4.5552,0.17664 -2.2617,0.0254 -4.2027,0.0525 -6.462,-0.0528 -0.2742,-0.0128 -0.4805,-0.17154 -0.7315,-0.28244 -0.2983,-0.13176 -0.5106,-0.40308 -0.8366,-0.41022 -1.016,-0.0222 -1.8893,0.12462 -2.8847,0.32874 -0.8881,0.18209 -1.5761,0.63833 -2.473,0.76985 -1.3804,0.20239 -2.5871,0.16165 -3.9821,0.17664 -3.8706,0.0416 -7.1886,0.005 -11.0593,-0.015 -2.1999,-0.0114 -4.0855,-0.10948 -6.2852,-0.0746 -1.0564,0.0168 -1.954,0.20408 -3.0103,0.22202 -1.0421,0.0177 -1.9367,-0.0342 -2.9753,-0.12036 -0.6627,-0.055 -1.2181,-0.20686 -1.8787,-0.28249 -0.3056,-0.035 -0.5714,-0.0113 -0.8783,-0.0332 -0.8234,-0.0585 -1.5305,-0.0992 -2.3503,-0.19631 -0.8142,-0.0964 -1.5023,-0.25025 -2.3154,-0.35617 -1.1644,-0.1517 -2.1595,-0.40396 -3.3336,-0.37976 -4.3871,0.0904 -8.1348,0.48897 -12.5175,0.7065 -0.9197,0.0457 -1.7108,0.003 -2.6308,0.0454 -0.7429,0.0344 -1.3744,0.15093 -2.1177,0.17447 -1.18599,0.0376 -2.20383,-0.0207 -3.39024,1e-5 -1.5939899,0.0278 -2.9622899,0.0304 -4.5528599,0.13858 -0.45949,0.0313 -1.109594,0.13251 -1.9503,0.30377 l 10e-8,-1 c 0.4590209,-0.0263 0.8122639,-0.0414 1.0597299,-0.0453 0.01594,-2.5e-4 0.02325,0.0183 0.03577,0.0282 0.01262,0.01 0.03064,0.0241 0.05407,0.0426 v 0 c 0,0 0,0.16667 0,0.5 z" />
  <path
     id="shape300"
     fill="#000000"
     d="m 178.50958,3.8094745 c 0.0272,0.017749 0.0481,0.031403 0.0628,0.04096 0.013,0.00851 0.0242,0.015796 0.0373,0.024302 7.7e-4,5.04e-4 0.002,0.00122 0.003,0.00216 -0.43687,0.040437 -0.7702,0.040437 -1,0 -0.0404,-0.00711 -0.04,-0.065685 0.001,-0.175736 l 1,1e-7 c -0.03,8.1253094 0.0104,14.3744994 0.12096,18.7476994 0.0365,1.4415 0.28093,2.6634 0.45675,4.0946 0.0369,0.3003 0.12187,0.55 0.15079,0.8511 0.10881,1.1331 0.22575,2.105 0.24241,3.2431 0.0408,2.7875 0.0174,5.1786 -0.0784,7.9648 -0.0417,1.2139 -0.25452,2.243 -0.31413,3.4562 -0.0516,1.0494 0.0322,1.9518 -0.003,3.0019 -0.0127,0.3783 -0.0888,0.6974 -0.13407,1.0732 -0.0473,0.3933 -0.0849,0.7307 -0.13045,1.1242 -0.0342,0.2956 -0.0582,0.5495 -0.0972,0.8445 -0.18062,1.3639 -0.5007,2.5194 -0.5304,3.8949 -0.10268,4.7553 0.0297,8.834 0.15288,13.5888 0.0175,0.6763 0.16733,1.2452 0.24877,1.9168 0.0366,0.3018 0.0516,0.5623 0.0885,0.864 0.008,0.0651 0.0215,0.1201 0.0396,0.1832 0.0187,0.0652 0.0287,0.1253 0.0651,0.1826 0.16876,0.2655 0.36575,0.4593 0.51794,0.7346 0.15633,0.2828 0.32364,0.5296 0.35845,0.8509 0.37959,3.504 0.57629,6.5205 0.821,10.0365 0.0725,1.0418 0.0447,1.9389 0.0851,2.9824 0.0368,0.9503 0.12409,1.7629 0.13552,2.7139 0.0715,5.951 0.0534,11.0526 0.10148,17.003803 0.007,0.9013 0.0209,1.6733 0.0568,2.5733 0.0807,2.023 0.1838,3.755 0.27631,5.778 0.0438,0.956 0.11279,1.775 0.11303,2.733 0.002,9.192 -0.0307,17.071 -0.10576,26.262 -0.004,0.5 -0.11733,0.924 -0.12025,1.423 -0.0544,9.336 -0.0159,17.339 -0.0435,26.675 -0.003,1.167 -0.009,2.168 -0.0452,3.334 -0.0411,1.315 -0.20701,2.44 -0.1766,3.756 0.02,0.865 0.2226,1.592 0.32011,2.452 0.15975,1.409 0.29149,2.617 0.41485,4.03 0.0677,0.775 0.14262,1.441 0.1308,2.218 -0.0319,2.097 -0.0809,3.897 -0.25548,5.987 -0.0663,0.794 -0.31925,1.446 -0.43121,2.235 -0.20518,1.446 -0.42907,2.686 -0.47429,4.146 -0.0789,2.546 -0.039,4.735 0.12047,7.277 0.0546,0.87 0.4153,1.573 0.4893,2.442 0.11146,1.308 -0.005,2.438 0.0384,3.75 0.019,0.577 0.0871,1.069 0.13975,1.644 0.0231,0.252 0.0664,0.466 0.0769,0.719 0.049,1.19 0.0685,2.211 0.0929,3.402 0.008,0.395 -0.006,0.734 0,1.128 0.009,0.584 -0.0249,1.087 0.0434,1.667 0.0555,0.47 0.17092,0.865 0.30852,1.318 0.0372,0.123 0.10771,0.215 0.1871,0.316 0.0522,0.066 0.11144,0.112 0.18377,0.155 0.0778,0.047 0.15718,0.061 0.23986,0.098 0.0182,0.008 0.036,0.015 0.0476,0.031 0.0234,0.034 0.03,0.07 0.0489,0.106 0.0864,0.165 0.19297,0.292 0.25189,0.469 0.0993,0.299 0.17525,0.563 0.19627,0.877 0.0614,0.915 0.0262,1.704 0.0383,2.622 9.2e-4,0.07 9.2e-4,0.17 0,0.301 h -1 c 9.2e-4,-0.131 9.2e-4,-0.231 0,-0.301 -0.012,-0.918 0.0231,-1.707 -0.0383,-2.622 -0.021,-0.314 -0.097,-0.578 -0.19627,-0.877 -0.0589,-0.177 -0.16545,-0.304 -0.25189,-0.469 -0.0189,-0.036 -0.0255,-0.072 -0.0489,-0.106 -0.0115,-0.016 -0.0293,-0.023 -0.0476,-0.031 -0.0827,-0.037 -0.16206,-0.051 -0.23986,-0.098 -0.0723,-0.043 -0.13162,-0.089 -0.18377,-0.155 -0.0794,-0.101 -0.14986,-0.193 -0.1871,-0.316 -0.1376,-0.453 -0.25302,-0.848 -0.30852,-1.318 -0.0683,-0.58 -0.0344,-1.083 -0.0434,-1.667 -0.006,-0.394 0.008,-0.733 0,-1.128 -0.0244,-1.191 -0.0439,-2.212 -0.0929,-3.402 -0.0104,-0.253 -0.0537,-0.467 -0.0769,-0.719 -0.0527,-0.575 -0.1207,-1.067 -0.13975,-1.644 -0.0433,-1.312 0.0731,-2.442 -0.0384,-3.75 -0.074,-0.869 -0.43473,-1.572 -0.4893,-2.442 -0.15951,-2.542 -0.19934,-4.731 -0.12047,-7.277 0.0452,-1.46 0.26911,-2.7 0.47429,-4.146 0.11196,-0.789 0.36488,-1.441 0.43121,-2.235 0.17454,-2.09 0.22362,-3.89 0.25548,-5.987 0.0118,-0.777 -0.0631,-1.443 -0.1308,-2.218 -0.12336,-1.413 -0.2551,-2.621 -0.41485,-4.03 -0.0975,-0.86 -0.3001,-1.587 -0.32011,-2.452 -0.0304,-1.316 0.13545,-2.441 0.1766,-3.756 0.0365,-1.166 0.0418,-2.167 0.0452,-3.334 0.0276,-9.336 -0.0109,-17.339 0.0435,-26.675 0.003,-0.499 0.11617,-0.923 0.12025,-1.423 0.075,-9.191 0.10807,-17.07 0.10576,-26.262 -2.4e-4,-0.958 -0.0693,-1.777 -0.11303,-2.733 -0.0925,-2.023 -0.19562,-3.755 -0.27631,-5.778 -0.0359,-0.9 -0.0495,-1.672 -0.0568,-2.5733 -0.0481,-5.951203 -0.0299,-11.052803 -0.10148,-17.003803 -0.0114,-0.951 -0.0987,-1.7636 -0.13552,-2.7139 -0.0404,-1.0435 -0.0126,-1.9406 -0.0851,-2.9824 -0.24471,-3.516 -0.44141,-6.5325 -0.821,-10.0365 -0.0348,-0.3213 -0.20212,-0.5681 -0.35845,-0.8509 -0.15219,-0.2753 -0.34918,-0.4691 -0.51794,-0.7346 -0.0364,-0.0573 -0.0464,-0.1174 -0.0651,-0.1826 -0.018,-0.0631 -0.0316,-0.1181 -0.0396,-0.1832 -0.0369,-0.3017 -0.0519,-0.5622 -0.0885,-0.864 -0.0814,-0.6716 -0.23125,-1.2405 -0.24877,-1.9168 -0.12316,-4.7548 -0.25556,-8.8335 -0.15288,-13.5888 0.0297,-1.3755 0.34978,-2.531 0.5304,-3.8949 0.0391,-0.295 0.063,-0.5489 0.0972,-0.8445 0.0455,-0.3935 0.0831,-0.7309 0.13045,-1.1242 0.0452,-0.3758 0.12133,-0.6949 0.13407,-1.0732 0.0354,-1.0501 -0.0484,-1.9525 0.003,-3.0019 0.0596,-1.2132 0.27242,-2.2423 0.31413,-3.4562 0.0958,-2.7862 0.11917,-5.1773 0.0784,-7.9648 -0.0167,-1.1381 -0.1336,-2.11 -0.24241,-3.2431 -0.0289,-0.3011 -0.11391,-0.5508 -0.15079,-0.8511 -0.17582,-1.4312 -0.42029,-2.6531 -0.45675,-4.0946 -0.1106,-4.3732 -0.15092,-10.62239 -0.12096,-18.7476995 l 1,1e-7 c 0.0395,0.1100689 0.0391,0.1686479 -0.001,0.1757359 -0.22982,0.040336 -0.56316,0.040336 -1,0 -0.001,-9.35e-4 -0.003,-0.00165 -0.003,-0.00216 -0.013,-0.00851 -0.0242,-0.015797 -0.0373,-0.024302 -0.0147,-0.00956 -0.0356,-0.023211 -0.0628,-0.04096 v 0 z" />
  <path
     id="shape301"
     fill="#000000"
     d="m 2.3973601,4.7833962 c 0.03857,0.028635 0.06824,0.050662 0.08901,0.066081 0.02062,0.015301 0.03828,0.028417 0.0589,0.043719 1.5e-4,1.15e-4 2.9e-4,2.14e-4 4.4e-4,3.3e-4 0,2e-6 1e-5,4e-6 1e-5,8e-6 -0.49566,0.158754 -0.829,0.158754 -1,0 -0.15875,-0.147393 -0.15876,-0.456865 0,-0.928416 l 1,10e-8 c 0.04387,0.2171709 0.07039,0.3850749 0.07955,0.5037099 0.1174,1.51964 0.18,2.82494 0.29502,4.34476 0.04074,0.53824 0.09013,0.99846 0.14999,1.5348998 0.04797,0.42998 0.1424,0.79362 0.15809,1.22598 0.12509,3.44665 0.17428,6.40285 0.24394,9.85105 0.01573,0.7785 0,1.4461 0,2.2248 0,4.3564 0.1814,8.0942 0,12.4468 -0.13726,3.2935 -0.71292,6.0836 -0.9094,9.3741 -0.2211,3.703 -0.17461,6.887 -0.28297,10.595 -0.06039,2.0664 -0.15485,3.8363 -0.19917,5.9031 -0.04798,2.2371 -0.01919,4.1557 -0.0645,6.3929 -0.02421,1.195 -0.08859,2.218 -0.13413,3.4124 -0.02216,0.5813 -0.04962,1.0794 -0.0593,1.6611 -0.0202,1.2143 -0.01115,2.2555 -0.02608,3.4699 -0.00728,0.5927 0.0011,1.1018 -0.03739,1.6934 -0.08954,1.376 -0.28216,2.548 -0.32825,3.9262 -0.2044,6.1122 -0.27671,11.3543 -0.38724,17.4689 -0.02501,1.383202 -0.08479,2.571802 0,3.952702 0.16614,2.7053 0.46815,5.0123 0.71626,7.7123 0.11652,1.268 0.2723,2.351 0.32556,3.623 0.1487,3.551 0.16585,6.599 0.25123,10.153 0.07176,2.987 0.12131,5.547 0.19774,8.534 0.02869,1.121 0.06754,2.082 0.1026,3.202 0.02574,0.824 0.05612,1.529 0.07112,2.353 0.02969,1.63 0.01917,3.028 0.05656,4.658 0.04466,1.947 0.1355,3.614 0.17784,5.561 0.06401,2.944 0.1022,5.467 0.12601,8.411 0.05321,6.579 -0.08999,12.222 0.09404,18.799 0.03209,1.147 0.35191,2.102 0.52249,3.236 0.03637,0.242 0.04345,0.452 0.06865,0.696 0.05702,0.55 0.15746,1.019 0.16627,1.572 0.03951,2.483 0.12236,4.617 -0.02836,7.096 -0.0844,1.388 -0.49405,2.538 -0.64147,3.921 -0.20747,1.946 -0.17076,3.632 -0.37137,5.579 -0.21192,2.057 -0.66867,3.789 -0.80653,5.852 -0.19601,2.933 -0.17242,5.458 -0.14574,8.397 0.00444,0.49 0.17606,0.893 0.23447,1.38 0.1029,0.856 0.14613,1.595 0.2261,2.455 0.01915,0.205 0.04626,0.381 0.05708,0.587 0.02895,0.552 0.02814,1.026 0.05652,1.578 0.01929,0.375 0.06825,0.695 0.07965,1.071 0.03487,1.149 0.02914,2.134 0.0525,3.283 0.00298,0.147 2.4e-4,0.274 0.02275,0.419 0.00516,0.033 0.0353,0.051 0.05453,0.079 0.01025,0.015 0.01392,0.033 0.0297,0.042 0.03468,0.018 0.06841,0.032 0.10782,0.032 0.19492,0.003 0.47331,-0.004 0.83517,-0.02 h -1 c 0.22122,-0.082 0.39418,-0.133 0.51886,-0.152 0.17142,-0.026 0.32471,0.027 0.49544,-0.003 0.02393,-0.004 0.03944,-0.035 0.04653,-0.093 h 1 c -0.00709,0.058 -0.0226,0.089 -0.04653,0.093 -0.17073,0.03 -0.32402,-0.023 -0.49544,0.003 -0.12468,0.019 -0.29764,0.07 -0.51886,0.152 h -1 c -0.36186,0.016 -0.64025,0.023 -0.83517,0.02 -0.03941,0 -0.07314,-0.014 -0.10782,-0.032 -0.01578,-0.009 -0.01945,-0.027 -0.0297,-0.042 -0.01923,-0.028 -0.04937,-0.046 -0.05453,-0.079 -0.02251,-0.145 -0.01977,-0.272 -0.02275,-0.419 -0.02336,-1.149 -0.01763,-2.134 -0.0525,-3.283 -0.0114,-0.376 -0.06036,-0.696 -0.07965,-1.071 -0.02838,-0.552 -0.02757,-1.026 -0.05652,-1.578 -0.01082,-0.206 -0.03793,-0.382 -0.05708,-0.587 -0.07997,-0.86 -0.1232,-1.599 -0.2261,-2.455 -0.05841,-0.487 -0.23002805,-0.89 -0.23447205,-1.38 -0.026677,-2.939 -0.050271,-5.464 0.14574205,-8.397 0.13786,-2.063 0.59461,-3.795 0.80653,-5.852 0.20061,-1.947 0.1639,-3.633 0.37137,-5.579 0.14742,-1.383 0.55707,-2.533 0.64147,-3.921 0.15072,-2.479 0.06787,-4.613 0.02836,-7.096 -0.00881,-0.553 -0.10925,-1.022 -0.16627,-1.572 -0.0252,-0.244 -0.03228,-0.454 -0.06865,-0.696 -0.17058,-1.134 -0.4904,-2.089 -0.52249,-3.236 -0.18403,-6.577 -0.04083,-12.22 -0.09404,-18.799 -0.02381,-2.944 -0.062,-5.467 -0.12601,-8.411 -0.04234,-1.947 -0.13318,-3.614 -0.17784,-5.561 -0.03739,-1.63 -0.02687,-3.028 -0.05656,-4.658 -0.015,-0.824 -0.04538,-1.529 -0.07112,-2.353 -0.03506,-1.12 -0.07391,-2.081 -0.1026,-3.202 -0.07643,-2.987 -0.12598,-5.547 -0.19774,-8.534 -0.08538,-3.554 -0.10253,-6.602 -0.25123,-10.153 -0.05326,-1.272 -0.20903705,-2.355 -0.32555705,-3.623 -0.248117,-2.7 -0.550119,-5.007 -0.7162649,-7.7123 -0.084788,-1.3809 -0.0250055,-2.5695 -8e-7,-3.952702 0.1105367,-6.1146 0.1828447,-11.3567 0.3872467,-17.4689 0.04609,-1.3782 0.238709,-2.5502 0.328242,-3.9262 0.038491,-0.5916 0.030109,-1.1007 0.037397,-1.6934 0.01493,-1.2144 0.005876,-2.2556 0.026082,-3.4699 0.009678,-0.5817 0.037134,-1.0798 0.059297,-1.6611 0.045534,-1.1944 0.109917,-2.2174 0.13412805,-3.4124 0.04531,-2.2372 0.01652,-4.1558 0.0645,-6.3929 0.04432,-2.0668 0.13878,-3.8367 0.19917,-5.9031 0.10836,-3.708 0.06187,-6.892 0.28297,-10.595 0.19648,-3.2905 0.77214,-6.0806 0.9094,-9.3741 0.1814,-4.3526 0,-8.0904 0,-12.4468 0,-0.7787 0.01573,-1.4463 0,-2.2248 -0.06966,-3.4482 -0.11885,-6.4044 -0.24394,-9.85105 -0.01569,-0.43236 -0.11012,-0.796 -0.15809,-1.22598 -0.05986,-0.5364398 -0.10925,-0.9966598 -0.14999,-1.5348998 -0.11502,-1.51982 -0.17762,-2.82512 -0.29502,-4.34476 -0.00916,-0.118635 -0.03568,-0.286539 -0.07955,-0.50371 l 1,10e-8 c 0.15876,0.4715509 0.15876,0.7810229 0,0.9284159 -0.17099,0.158754 -0.50433,0.158754 -1,0 0,-4e-6 -1e-5,-7e-6 -1e-5,-9e-6 -1.5e-4,-1.15e-4 -2.9e-4,-2.14e-4 -4.4e-4,-3.29e-4 -0.02062,-0.015302 -0.03828,-0.028418 -0.0589,-0.043719 -0.02077,-0.015419 -0.05044,-0.037446 -0.08901,-0.066081 v 0 z" />
  <path
     style="fill:#ffffff;stroke-width:6.78"
     d="m 174.61097,297.98991 c -27.64419,-1.70678 -48.00172,-1.90932 -113.079953,-1.12497 L 4.5509767,297.55167 3.6595832,287.62311 C 3.1693168,282.1624 3.3608237,272.96112 4.085154,267.17582 4.9099604,260.58801 4.8945892,234.64394 4.0440221,197.75218 2.3716408,125.21575 2.4311781,103.85844 4.4154446,64.514896 5.271327,47.544673 5.6010741,27.506487 5.1482162,19.985593 L 4.3248381,6.3112398 10.226781,6.1662696 C 13.472849,6.0865361 24.333336,5.8127119 34.361194,5.5577714 44.389053,5.302831 55.717649,4.3904389 59.535849,3.5302335 65.901563,2.096097 80.023096,2.2761239 133.23728,4.4698088 c 5.01393,0.2066927 29.94333,1.0787463 55.39866,1.9378969 25.45534,0.8591506 46.58262,1.8572635 46.94953,2.2180287 0.36689,0.3607651 0.81474,19.0790896 0.9952,41.5962776 0.18046,22.517188 0.96017,50.722758 1.7327,62.679058 0.77252,11.95629 1.34302,57.11999 1.26776,100.36377 -0.10028,57.64539 0.30165,79.44435 1.50642,81.6955 1.59592,2.982 1.426,3.07043 -5.89963,3.07043 -4.14859,0 -15.0577,0.26357 -24.24244,0.58571 -9.18475,0.32214 -25.53528,0.0401 -36.33451,-0.62657 z"
     id="path7962"
     transform="scale(0.75)" />
  <path
     style="fill:#ffffff;stroke-width:0.220577"
     d="m 3.5880795,298.8135 c -0.042909,-0.0655 -0.053642,-0.22423 -0.064052,-0.94732 -0.039233,-2.72517 -0.08214,-4.40465 -0.1239325,-4.851 -0.025814,-0.27571 -0.062432,-0.97843 -0.081372,-1.56161 -0.01894,-0.58317 -0.063361,-1.36776 -0.098713,-1.74352 -0.035352,-0.37576 -0.086247,-0.94672 -0.1130984,-1.2688 -0.1542196,-1.84983 -0.2070973,-2.2884 -0.3597692,-2.98389 -0.1184404,-0.53956 -0.1755052,-0.9713 -0.1764387,-1.33492 l -5.638e-4,-0.2196 h 0.4214602 0.4214602 l 0.016189,0.10573 c 0.0089,0.0581 0.024821,0.37657 0.035371,0.7076 0.044037,1.38172 0.061106,1.5951 0.6681384,8.35241 0.2141622,2.38399 0.3893859,4.37314 0.3893859,4.42034 v 0.0858 l 1.3908035,-0.0218 c 0.7649418,-0.012 6.8808169,-0.086 13.5908339,-0.16455 6.710016,-0.0785 12.675831,-0.14881 13.257366,-0.15619 0.581534,-0.007 0.991455,-0.008 0.910935,-9.3e-4 -0.211779,0.0181 -4.683526,0.32247 -5.872281,0.39974 -2.443327,0.15881 -3.393663,0.20058 -5.205346,0.22877 -1.781005,0.0277 -1.940818,0.0351 -2.846674,0.13222 l -0.959736,0.10285 -3.920276,0.026 c -5.5825381,0.037 -7.2003964,0.10496 -8.6516782,0.3635 -0.3143496,0.056 -0.7175999,0.10819 -0.8961121,0.11598 -0.2714343,0.0119 -0.3316164,0.0242 -0.3676256,0.0756 -0.038264,0.0546 -0.083627,0.0609 -0.4074341,0.0563 -0.3068606,-0.004 -0.4070673,0.008 -0.634835,0.0774 l -0.2704588,0.0825 -0.051547,-0.0787 z"
     id="path10150"
     transform="scale(0.75)" />
  <path
     style="fill:#ffffff;stroke-width:0.308549"
     d="m 2.5790097,282.21066 c -0.031014,-1.72525 0.026199,-5.64162 0.1052098,-7.20175 0.1357359,-2.68022 0.1892765,-3.15229 0.7458333,-6.576 0.337028,-2.07326 0.5153363,-3.58972 0.5859364,-4.9832 l 0.011528,-0.22755 0.174306,-0.0143 0.1743059,-0.0143 -0.027753,0.40117 c -0.015264,0.22064 -0.05817,0.86194 -0.095347,1.42511 -0.037177,0.56317 -0.1290551,1.57329 -0.2041739,2.24472 -0.4955032,4.4289 -0.7194168,9.17027 -0.6693059,14.17253 l 0.024276,2.42334 h -0.39758 -0.39758 z"
     id="path10152"
     transform="scale(0.75)" />
  <path
     style="fill:#ffffff;stroke-width:0.308549"
     d="m 4.0502719,262.98503 c 0,-0.39979 0.1352635,-2.93195 0.2061214,-3.85865 0.073932,-0.9669 0.1818768,-1.89582 0.2510622,-2.16052 0.071695,-0.2743 -0.039153,4.65197 -0.1310471,5.82397 l -0.03033,0.38683 -0.1479032,0.0143 -0.1479032,0.0143 z"
     id="path10154"
     transform="scale(0.75)" />
  <path
     style="fill:#ffffff;stroke-width:0.308549"
     d="m 4.4913311,237.93072 c -0.067054,-0.35668 -0.1428441,-0.79185 -0.1684217,-0.96706 -0.1508945,-1.03364 -0.2436383,-8.70695 -0.200903,-16.62204 l 0.032004,-5.92751 h 0.1008682 0.1008682 l 0.030005,1.53592 c 0.130869,6.69892 0.3062484,22.62919 0.2491291,22.62919 -0.011898,0 -0.076496,-0.29183 -0.1435498,-0.6485 z"
     id="path10156"
     transform="scale(0.75)" />
  <path
     style="fill:#ffffff;stroke-width:0.308549"
     d="m 4.1240817,211.83149 c -0.091961,-8.4567 -0.1592151,-12.03246 -0.3010784,-16.00767 -0.095458,-2.67486 -0.1153613,-3.59428 -0.1847191,-8.53288 -0.024431,-1.73957 -0.057403,-3.34204 -0.073273,-3.56105 -0.02478,-0.34197 -0.018879,-0.3982 0.041789,-0.3982 0.087448,0 0.1115407,0.36856 0.1472594,2.25268 0.013761,0.72586 0.1061743,4.95475 0.2053636,9.39754 0.099189,4.44278 0.2207028,10.14616 0.27003,12.67416 0.049327,2.52801 0.1015497,5.08275 0.11605,5.67721 l 0.026364,1.08083 h -0.109851 -0.109851 z"
     id="path10158"
     transform="scale(0.75)" />
  <path
     style="fill:#ffffff;stroke-width:0.308549"
     d=""
     id="path10160"
     transform="scale(0.75)" />
  <path
     style="fill:#ffffff;stroke-width:0.308549"
     d="m 3.5493725,183.22929 c -1.672e-4,-0.0563 -0.030455,-0.99322 -0.067306,-2.08202 -0.089031,-2.63047 -0.3147462,-12.223 -0.4556406,-19.36394 -0.1264763,-6.41018 -0.2266267,-8.88622 -0.4334919,-10.71729 -0.024036,-0.21275 -0.04387,-0.41242 -0.044075,-0.44371 -2.564e-4,-0.0391 0.082941,-0.0569 0.2654967,-0.0569 h 0.26587 l 0.031226,2.21855 c 0.065058,4.62223 0.3153359,17.87366 0.4841214,25.63276 0.1108129,5.09409 0.1099977,4.91494 0.022366,4.91494 -0.040362,0 -0.068387,-0.0419 -0.068567,-0.1024 z"
     id="path10162"
     transform="scale(0.75)" />
  <path
     style="fill:#ffffff;stroke-width:0.308549"
     d="m 2.5280734,150.41754 c -0.013495,-0.0814 -0.1167978,-1.08993 -0.2295618,-2.2413 -0.1127639,-1.15137 -0.3066525,-3.09687 -0.4308636,-4.32333 -0.4417087,-4.36142 -0.5232362,-5.74458 -0.4895407,-8.30533 0.049916,-3.79348 0.1728392,-10.58636 0.1974384,-10.9107 l 0.025023,-0.32994 h 0.6049761 0.6049761 l 0.027757,3.58381 c 0.084751,10.94243 0.1803821,20.25085 0.2262884,22.0262 l 0.016769,0.64849 H 2.8169728 c -0.2628833,0 -0.2645002,-8.2e-4 -0.2888994,-0.1479 z"
     id="path10164"
     transform="scale(0.75)" />
  <path
     style="fill:#ffffff;stroke-width:0.308549"
     d="m 1.6101002,122.52072 c 0.037777,-2.14335 0.1456861,-6.7267 0.2102714,-8.93107 0.1222229,-4.17161 0.1432243,-4.54957 0.3868978,-6.96283 0.1698088,-1.68173 0.1985993,-2.43501 0.2252468,-5.89337 0.022497,-2.919764 0.086391,-5.572696 0.1433069,-5.950262 l 0.022295,-0.147903 H 2.8962849 3.1944513 L 3.166369,95.352047 C 3.0327774,98.761795 2.8831525,109.13351 2.8381094,118.10638 l -0.031126,6.20056 H 2.1928006 1.578618 Z"
     id="path10166"
     transform="scale(0.75)" />
  <path
     style="fill:#ffffff;stroke-width:0.308549"
     d="m 2.6101762,93.941278 c 0.083962,-1.946384 0.118054,-3.622804 0.1432174,-7.042467 0.015195,-2.064956 0.046246,-4.389312 0.069002,-5.165235 0.078792,-2.686558 0.1870355,-5.734744 0.2088741,-5.881996 l 0.021935,-0.147903 h 0.4102617 0.4102618 l -0.02691,0.420956 C 3.7398203,77.798407 3.1857414,93.167231 3.1856227,94.464628 l -1.56e-5,0.170657 H 2.8829228 2.5802385 Z"
     id="path10168"
     transform="scale(0.75)" />
  <path
     style="fill:#ffffff;stroke-width:0.308549"
     d="m 3.0657246,74.622846 c 0.016832,-0.594457 0.060749,-2.842016 0.097594,-4.994577 0.1277346,-7.462509 0.2365586,-9.545957 0.7059805,-13.516075 0.073987,-0.625745 0.2064104,-1.741622 0.2942737,-2.479727 0.087863,-0.738105 0.1597514,-1.367832 0.1597514,-1.399392 0,-0.04032 0.088499,-0.05738 0.2976621,-0.05738 h 0.2976621 l -0.025818,0.511973 c -0.0142,0.281585 -0.056627,1.372086 -0.094282,2.423337 -0.1157715,3.232089 -0.2831813,6.99834 -0.5208867,11.718483 -0.1090131,2.164687 -0.4094236,8.589087 -0.4094236,8.755691 v 0.1185 H 3.4516796 3.035122 Z"
     id="path10170"
     transform="scale(0.75)" />
  <path
     style="fill:#ffffff;stroke-width:0.308549"
     d="m 4.3410632,52.050545 c 0.041569,-0.208334 0.1590704,-1.52057 0.2312551,-2.582618 0.1781895,-2.62169 0.2120866,-6.48127 0.1221032,-13.902899 -0.028071,-2.315254 -0.0602,-5.576519 -0.071398,-7.247256 L 4.602665,25.280068 H 4.9343525 5.26604 l 0.029237,0.279728 C 5.339493,25.982828 5.329116,33.128821 5.279195,36.634482 5.2124,41.325147 5.0843906,46.88256 4.9600041,50.491873 c -0.024584,0.713348 -0.044781,1.384032 -0.044883,1.490409 l -1.849e-4,0.193411 H 4.6155144 4.3160921 Z"
     id="path10172"
     transform="scale(0.75)" />
  <path
     style="fill:#ffffff;stroke-width:0.308549"
     d="M 4.5794151,24.677078 C 4.5649583,24.345433 4.5316819,23.050143 4.5054676,21.798654 4.4097938,17.231136 4.3328818,15.32217 4.209351,14.449004 4.04316,13.274297 3.930786,12.035509 3.7779517,9.6933473 3.7028208,8.5419779 3.6215922,7.3234832 3.5974438,6.9855813 3.5732954,6.6476794 3.55379,6.2227422 3.5540986,6.0412763 3.5546321,5.7274936 3.5597847,5.7113384 3.659331,5.7113384 c 0.057569,0 0.358512,-0.020266 0.6687615,-0.045037 0.9426061,-0.075257 4.560925,-0.3108039 6.2754285,-0.4085203 5.264071,-0.3000206 7.034338,-0.3404322 12.787937,-0.291923 7.992137,0.067383 20.351181,0.01868 23.710018,-0.093433 l 0.614367,-0.020507 -0.773647,0.064182 C 45.434455,5.0411834 41.807888,5.2507476 39.114704,5.3684192 36.330074,5.4900862 36.144365,5.4952303 19.318432,5.9167683 13.811882,6.0547231 8.1945451,6.1956352 6.8354603,6.2299063 5.4763755,6.2641773 4.3511322,6.305482 4.3349197,6.3216945 4.3187072,6.337907 4.4950056,9.5094322 4.726694,13.369529 c 0.482021,8.030818 0.493315,8.249112 0.5355811,10.351867 l 0.03133,1.558672 H 4.9496525 4.6057001 Z"
     id="path10174"
     transform="scale(0.75)" />
  <path
     style="fill:#ffffff;stroke-width:0.449121"
     d="M 40.076453,18.552547 V 5.4082618 l 0.347771,-0.034515 c 0.191274,-0.018983 1.48051,-0.097118 2.864969,-0.1736321 7.262663,-0.4013823 12.906186,-0.9728332 16.32867,-1.6534057 1.319093,-0.2623062 2.853515,-0.4763196 4.272614,-0.5959227 7.545065,-0.6359059 23.034802,-0.3225939 62.101943,1.2561403 7.95744,0.3215665 13.88867,0.5453751 19.27644,0.7273763 2.24064,0.07569 4.26005,0.1538887 4.48758,0.1737756 l 0.41369,0.036158 0.0169,13.2762985 0.0169,13.276298 -55.063716,-1e-6 -55.063721,-1e-6 z"
     id="path10176"
     transform="scale(0.75)" />
  <path
     style="fill:#ffffff;stroke-width:0.449121"
     d="m 50.018283,4.6426569 c 0.05675,-0.056352 8.749475,-1.8580288 10.891301,-2.257359 2.715187,-0.5062299 3.815841,-0.5704996 9.406374,-0.5492607 4.295741,0.01632 4.512647,0.011096 6.756691,-0.1627359 2.837651,-0.2198146 6.698075,-0.3451316 9.023555,-0.2929224 l 1.736928,0.038996 0.382818,0.1978884 c 0.472399,0.2441946 1.169125,0.3296004 4.622312,0.5666104 1.311593,0.090021 2.861657,0.2008894 3.444587,0.2463734 2.012396,0.1570201 13.212281,0.054802 19.794251,-0.1806561 1.48708,-0.053198 3.55521,-0.096723 4.59584,-0.096723 1.78429,0 1.93591,0.00964 2.66182,0.1693078 1.16502,0.2562442 1.3848,0.3396374 1.50434,0.5707898 0.0955,0.184687 0.23921,1.1119212 0.18237,1.1767449 -0.0139,0.015919 -2.47655,-0.067176 -5.47244,-0.1846563 C 92.584408,2.8276698 78.216081,2.456547 70.3822,2.6151122 64.827787,2.7275388 62.42783,2.9202947 59.617863,3.479665 57.598435,3.8816656 55.073398,4.2151036 51.604976,4.5377885 50.099722,4.6778299 49.974532,4.686104 50.018283,4.6426569 Z"
     id="path10178"
     transform="scale(0.75)" />
  <path
     style="fill:#ffffff;stroke-width:0.599734"
     d="m 142.37042,4.772506 c -1.60548,-0.061876 -5.28747,-0.1993406 -8.1822,-0.3054767 -2.89474,-0.1061362 -5.32286,-0.2140439 -5.39584,-0.2397949 -0.15769,-0.055644 0.26823,-0.255551 0.91502,-0.4294658 0.36486,-0.098106 0.54753,-0.093837 1.22972,0.02874 0.86401,0.1552469 1.28967,0.1429917 7.1874,-0.2069282 1.31358,-0.077936 2.78637,-0.1273977 3.27288,-0.1099144 0.81825,0.029404 0.92767,0.055457 1.45953,0.3474934 1.2423,0.6821258 2.16309,0.9117184 3.98054,0.9925168 0.31623,0.014059 0.0973,0.02776 -0.48651,0.030447 -0.58381,0.00269 -2.37505,-0.045741 -3.98054,-0.1076172 z"
     id="path10180"
     transform="scale(0.75)" />
  <path
     style="fill:#ffffff;stroke-width:0.599734"
     d=""
     id="path10182"
     transform="scale(0.75)" />
  <path
     style="fill:#ffffff;stroke-width:0.143094"
     d="m 154.90266,5.242297 c -0.5804,-0.021296 -2.69357,-0.096334 -4.69594,-0.1667518 -2.00237,-0.070417 -4.09655,-0.1454254 -4.65373,-0.1666849 l -1.01306,-0.038654 1.21548,0.011256 c 0.81305,0.00753 1.21987,0.00415 1.22874,-0.010207 0.009,-0.013808 -0.075,-0.026363 -0.23408,-0.035202 -0.45733,-0.025403 -0.92218,-0.062907 -0.89442,-0.072161 0.0152,-0.00505 0.18118,0.00141 0.36897,0.014342 1.05343,0.072569 2.5238,0.086893 4.4042,0.042904 1.10294,-0.025801 2.15418,-0.01699 2.78591,0.02335 0.69784,0.044562 1.34263,0.1315498 2.5643,0.3459483 l 0.52763,0.092598 -0.27437,-0.00101 c -0.1509,-5.546e-4 -0.74924,-0.018433 -1.32963,-0.039729 z"
     id="path10184"
     transform="scale(0.75)" />
  <path
     style="fill:#ffffff;stroke-width:0.492519"
     d="M 216.33051,7.4397937 C 212.06879,7.2247352 199.91229,6.7628138 182.11571,6.1397036 l -14.05639,-0.4921556 7.37325,-0.00554 c 4.05529,-0.00305 9.30192,0.032085 11.65918,0.078076 2.35726,0.04599 6.62322,0.08727 9.4799,0.091731 6.9515,0.010858 7.59584,0.04638 9.04404,0.498606 1.44282,0.4505475 2.38977,0.5620348 5.92039,0.6970284 5.63558,0.2154768 6.47068,0.2711052 6.64319,0.4425204 0.0774,0.076868 -0.14855,0.075624 -1.84876,-0.010173 z"
     id="path10186"
     transform="scale(0.75)" />
  <path
     style="fill:#ffffff;stroke-width:0.492519"
     d="m 236.52459,40.334962 c -3.7e-4,-0.0899 -0.0324,-2.255562 -0.0713,-4.812591 -0.2357,-15.513995 -0.54092,-25.807749 -0.7932,-26.7510603 -0.0431,-0.1611642 -0.10745,-0.2064504 -0.35287,-0.2483462 -1.00962,-0.1723553 -6.78286,-0.5302788 -13.46998,-0.8350973 l -2.81087,-0.1281283 0.77687,-0.2788393 c 0.92762,-0.3329439 1.94282,-0.5818917 3.02255,-0.7411928 0.67098,-0.098996 1.5584,-0.1164266 5.77511,-0.1134369 3.05747,0.00217 5.2995,0.034476 5.80336,0.083627 0.45158,0.044052 1.17075,0.068107 1.59814,0.053455 l 0.77708,-0.026639 -0.0247,1.716021 c -0.0372,2.5801991 0.12837,20.1548651 0.20556,21.8214211 0.0624,1.347379 0.4171,4.364951 0.69162,5.884073 0.12268,0.678866 0.30349,2.468063 0.37256,3.686627 l 0.0484,0.853554 h -0.77382 c -0.75386,0 -0.77384,-0.0042 -0.77447,-0.163447 z"
     id="path10188"
     transform="scale(0.75)" />
  <path
     style="fill:#ffffff;stroke-width:0.432018"
     d="m 236.76091,62.636289 c -0.0481,-3.331725 -0.13688,-11.016071 -0.20712,-17.919207 l -0.0429,-4.21951 0.75671,0.03879 c 0.41618,0.02133 0.77104,0.05158 0.78856,0.06721 0.0611,0.05453 0.0154,8.219771 -0.0561,10.021589 -0.044,1.109202 -0.13636,2.34921 -0.23726,3.185976 -0.14373,1.191971 -0.17121,1.738383 -0.21146,4.205488 -0.0255,1.559535 -0.0645,2.878529 -0.0867,2.931098 -0.0222,0.05257 -0.12821,0.855435 -0.23552,1.784147 -0.10731,0.928712 -0.24642,1.989642 -0.30913,2.357622 l -0.11402,0.669055 z"
     id="path10190"
     transform="scale(0.75)" />
  <path
     style="fill:#ffffff;stroke-width:0.432018"
     d="m 239.05234,135.92967 c -0.15109,-9.56672 -0.42816,-18.22031 -0.77374,-24.16563 -0.21955,-3.77724 -0.41662,-8.0705 -0.60399,-13.158081 -0.0368,-0.998804 -0.0949,-2.575862 -0.12918,-3.504574 -0.0343,-0.928712 -0.0614,-1.975305 -0.0602,-2.325762 l 0.002,-0.637195 0.14839,0.181404 c 0.0816,0.09977 0.26642,0.415184 0.41067,0.700914 l 0.26228,0.519511 0.15979,1.592988 c 0.42953,4.282039 0.96642,11.695755 1.0221,14.113875 0.0214,0.92871 0.081,2.43408 0.13237,3.34527 0.0878,1.55599 0.21115,14.89005 0.21589,23.33728 l 0.002,2.75587 h -0.37221 -0.3722 z"
     id="path10192"
     transform="scale(0.75)" />
  <path
     style="fill:#ffffff;stroke-width:0.432018"
     d="m 239.56074,180.91565 c -0.0221,-2.81242 -0.0689,-8.7694 -0.10403,-13.23773 -0.0704,-8.94666 -0.15893,-16.85363 -0.25434,-22.71601 -0.0342,-2.10274 -0.0624,-4.37514 -0.0626,-5.04977 l -4e-4,-1.2266 h 0.34588 0.34587 l 0.0338,0.33453 c 0.0186,0.18399 0.0498,0.92234 0.0694,1.64077 0.0196,0.71844 0.12831,3.05535 0.24163,5.19314 l 0.20603,3.88689 -0.009,17.35853 c -0.005,9.54719 -0.0293,17.71205 -0.0542,18.14413 l -0.0453,0.78561 h -0.33632 -0.33632 z"
     id="path10194"
     transform="scale(0.75)" />
  <path
     style="fill:#ffffff;stroke-width:0.432018"
     d="m 239.58891,207.31146 0.001,-21.28232 h 0.35139 0.35139 l -0.0299,0.93986 c -0.11689,3.67397 -0.1572,9.56738 -0.16206,23.69359 -0.003,8.90484 -0.0244,16.58225 -0.0473,17.0609 l -0.0417,0.87029 h -0.21189 -0.21188 z"
     id="path10196"
     transform="scale(0.75)" />
  <path
     style="fill:#ffffff;stroke-width:0.432018"
     d="m 239.6935,258.25522 c -0.0224,-0.21028 -0.0594,-6.43966 -0.0822,-13.84307 l -0.0416,-13.46075 h 0.16948 0.16947 l -0.0501,0.84429 c -0.0988,1.66341 -0.0544,3.03892 0.13413,4.1577 0.16791,0.99642 0.46063,3.49793 0.75308,6.43567 0.12851,1.29095 0.14522,1.79197 0.14026,4.20549 -0.009,4.22219 -0.19158,7.00898 -0.56967,8.68019 -0.12508,0.55285 -0.30723,1.53564 -0.40479,2.18399 -0.17047,1.13286 -0.17897,1.16391 -0.21806,0.79649 z"
     id="path10198"
     transform="scale(0.75)" />
  <path
     style="fill:#ffffff;stroke-width:0.432018"
     d="m 239.5854,229.77259 v -1.17881 h 0.23247 0.23247 l -0.0434,0.97172 c -0.0573,1.28476 -0.077,1.3859 -0.26936,1.3859 h -0.15221 z"
     id="path10200"
     transform="scale(0.75)" />
  <path
     style="fill:#ffffff;stroke-width:0.432018"
     d="m 198.87444,300.46415 c -0.36478,-0.028 -0.96693,-0.0978 -1.33811,-0.1552 -1.07236,-0.16584 -3.89117,-0.7753 -4.67435,-1.01065 -0.70681,-0.2124 -1.54555,-0.35591 -2.85037,-0.48769 -0.38435,-0.0388 -3.76007,-0.0928 -7.93308,-0.12687 -3.99521,-0.0326 -7.98087,-0.0875 -8.85701,-0.12196 -0.87615,-0.0345 -1.82955,-0.0638 -2.11868,-0.0652 l -0.52568,-0.003 v -0.35046 c 0,-0.3211 0.012,-0.35042 0.14337,-0.34997 0.0789,2.5e-4 1.30465,0.071 2.72401,0.15712 4.85965,0.29498 9.57755,0.49446 16.18475,0.68433 4.45957,0.12816 19.23677,0.10963 22.93903,-0.0288 3.53911,-0.13229 6.04762,-0.20814 10.99162,-0.33234 5.94064,-0.14924 6.9548,-0.16889 11.81997,-0.22907 4.76828,-0.059 5.36721,-0.0933 5.95691,-0.34193 0.76762,-0.32359 0.77522,-0.78186 0.0375,-2.26232 -0.20223,-0.40585 -0.39897,-0.86695 -0.4372,-1.02465 -0.45957,-1.89611 -0.77035,-6.87133 -0.96722,-15.48385 -0.13543,-5.92495 -0.13258,-5.4174 -0.0286,-5.09756 0.26551,0.81679 0.30134,1.28331 0.31805,4.14177 0.0119,2.03892 0.0438,3.02452 0.12045,3.72759 0.18794,1.72313 0.2226,2.5081 0.25881,5.8622 0.0394,3.65012 0.0775,4.22514 0.34632,5.22716 0.20363,0.75902 0.39291,1.058 0.80495,1.27151 0.20072,0.104 0.29456,0.22105 0.48616,0.60641 0.33901,0.68184 0.43163,1.2408 0.43163,2.60487 v 1.14506 l -0.33453,0.0358 c -0.18399,0.0197 -0.86942,0.0793 -1.52317,0.13256 -0.97142,0.0791 -1.3033,0.13284 -1.81601,0.294 l -0.62736,0.1972 -4.55595,-0.0544 c -7.56176,-0.0902 -10.8592,-0.0369 -16.50335,0.2668 -2.99594,0.16122 -3.38356,0.20084 -5.25686,0.53738 -1.48953,0.26759 -1.83408,0.30558 -4.04619,0.4461 -3.98485,0.25314 -7.40177,0.32301 -9.1698,0.18751 z"
     id="path10202"
     transform="scale(0.75)" />
  <path
     style="fill:#ffffff;stroke-width:0.0284218"
     d="m 239.98434,297.93437 c 0.48921,-0.0453 0.7876,-0.0905 1.06478,-0.16139 0.52374,-0.13388 0.78754,-0.34058 0.84275,-0.66031 0.047,-0.27201 -0.0459,-0.62792 -0.31277,-1.19849 -0.0853,-0.18245 -0.24848,-0.50317 -0.40676,-0.79957 -0.0888,-0.16633 -0.122,-0.23306 -0.14541,-0.29245 -0.0701,-0.1779 -0.13116,-0.39988 -0.19567,-0.7116 l -0.0202,-0.0975 h 0.0183 c 0.0156,0 0.0187,10e-4 0.0205,0.009 0.001,0.005 0.0118,0.0566 0.0235,0.11423 0.0634,0.31211 0.092,0.40248 0.22606,0.71474 0.0889,0.20705 0.15899,0.35762 0.31121,0.66863 0.30733,0.62795 0.44543,0.99155 0.49435,1.30162 0.008,0.051 0.01,0.0773 0.01,0.16349 8e-5,0.0905 -0.001,0.10829 -0.009,0.14977 -0.0457,0.22548 -0.18139,0.37724 -0.45997,0.51451 -0.33862,0.16684 -0.66971,0.23564 -1.3624,0.28308 -0.13651,0.009 -0.19089,0.0103 -0.0985,0.002 z"
     id="path10204"
     transform="scale(0.75)" />
  <path
     style="fill:#ffffff;stroke-width:0.0264844"
     d=""
     id="path10206"
     transform="scale(0.75)" />
  <path
     style="fill:#ffffff;stroke-width:0.0264844"
     d=""
     id="path10208"
     transform="scale(0.75)" />
  <path
     style="fill:#ffffff;stroke-width:0.0264844"
     d=""
     id="path10210"
     transform="scale(0.75)" />
  <path
     style="fill:#ffffff;stroke-width:0.0264844"
     d=""
     id="path10212"
     transform="scale(0.75)" />
  <path
     style="fill:#ffffff;stroke-width:0.0264844"
     d="m 240.8259,294.01085 -0.0159,-0.001 -0.0241,-0.1336 c -0.0745,-0.41193 -0.14568,-0.92882 -0.2076,-1.50665 -0.009,-0.0806 -0.0165,-0.1522 -0.0174,-0.15918 -0.002,-0.0127 -0.002,-0.0127 0.0155,-0.0127 0.0208,0 0.0184,-0.008 0.0292,0.0957 0.058,0.55591 0.14436,1.18024 0.22272,1.61026 0.0216,0.11864 0.0204,0.11069 0.0164,0.10976 -0.002,-3.8e-4 -0.0101,-10e-4 -0.0188,-0.002 z"
     id="path10214"
     transform="scale(0.75)" />
</svg>
