<?xml version="1.0" encoding="UTF-8" standalone="no"?>
<svg
   id="Layer_1"
   data-name="Layer 1"
   viewBox="0 0 1000 1000"
   version="1.1"
   sodipodi:docname="instaglyph.svg"
   inkscape:version="1.2.1 (9c6d41e4, 2022-07-14)"
   xmlns:inkscape="http://www.inkscape.org/namespaces/inkscape"
   xmlns:sodipodi="http://sodipodi.sourceforge.net/DTD/sodipodi-0.dtd"
   xmlns="http://www.w3.org/2000/svg"
   xmlns:svg="http://www.w3.org/2000/svg">
  <defs
     id="defs1491" />
  <sodipodi:namedview
     id="namedview1489"
     pagecolor="#ffffff"
     bordercolor="#000000"
     borderopacity="0.25"
     inkscape:showpageshadow="2"
     inkscape:pageopacity="0.0"
     inkscape:pagecheckerboard="0"
     inkscape:deskcolor="#d1d1d1"
     showgrid="false"
     inkscape:zoom="0.51159937"
     inkscape:cx="206.21605"
     inkscape:cy="462.27579"
     inkscape:window-width="1440"
     inkscape:window-height="847"
     inkscape:window-x="0"
     inkscape:window-y="25"
     inkscape:window-maximized="1"
     inkscape:current-layer="Layer_1" />
  <path
     d="M295.42,6c-53.2,2.51-89.53,11-121.29,23.48-32.87,12.81-60.73,30-88.45,57.82S40.89,143,28.17,175.92c-12.31,31.83-20.65,68.19-23,121.42S2.3,367.68,2.56,503.46,3.42,656.26,6,709.6c2.54,53.19,11,89.51,23.48,121.28,12.83,32.87,30,60.72,57.83,88.45S143,964.09,176,976.83c31.8,12.29,68.17,20.67,121.39,23s70.35,2.87,206.09,2.61,152.83-.86,206.16-3.39S799.1,988,830.88,975.58c32.87-12.86,60.74-30,88.45-57.84S964.1,862,976.81,829.06c12.32-31.8,20.69-68.17,23-121.35,2.33-53.37,2.88-70.41,2.62-206.17s-.87-152.78-3.4-206.1-11-89.53-23.47-121.32c-12.85-32.87-30-60.7-57.82-88.45S862,40.87,829.07,28.19c-31.82-12.31-68.17-20.7-121.39-23S637.33,2.3,501.54,2.56,348.75,3.4,295.42,6m5.84,903.88c-48.75-2.12-75.22-10.22-92.86-17-23.36-9-40-19.88-57.58-37.29s-28.38-34.11-37.5-57.42c-6.85-17.64-15.1-44.08-17.38-92.83-2.48-52.69-3-68.51-3.29-202s.22-149.29,2.53-202c2.08-48.71,10.23-75.21,17-92.84,9-23.39,19.84-40,37.29-57.57s34.1-28.39,57.43-37.51c17.62-6.88,44.06-15.06,92.79-17.38,52.73-2.5,68.53-3,202-3.29s149.31.21,202.06,2.53c48.71,2.12,75.22,10.19,92.83,17,23.37,9,40,19.81,57.57,37.29s28.4,34.07,37.52,57.45c6.89,17.57,15.07,44,17.37,92.76,2.51,52.73,3.08,68.54,3.32,202s-.23,149.31-2.54,202c-2.13,48.75-10.21,75.23-17,92.89-9,23.35-19.85,40-37.31,57.56s-34.09,28.38-57.43,37.5c-17.6,6.87-44.07,15.07-92.76,17.39-52.73,2.48-68.53,3-202.05,3.29s-149.27-.25-202-2.53m407.6-674.61a60,60,0,1,0,59.88-60.1,60,60,0,0,0-59.88,60.1M245.77,503c.28,141.8,115.44,256.49,257.21,256.22S759.52,643.8,759.25,502,643.79,245.48,502,245.76,245.5,361.22,245.77,503m90.06-.18a166.67,166.67,0,1,1,167,166.34,166.65,166.65,0,0,1-167-166.34"
     transform="translate(-2.5 -2.5)"
     id="path1486"
     style="fill:#161614;fill-opacity:1" />
  <path
     style="fill:#161614;stroke-width:4.23729;fill-opacity:1"
     d="M 269.0678,993.11716 C 224.99608,988.93496 182.734,977.11216 146.33578,958.78297 110.5744,940.77445 56.906305,885.89297 39.543631,849.57627 6.0422305,779.50301 3.2625648,748.7975 5.2125648,470.33898 6.7172161,255.4759 7.1829589,244.33397 15.980889,212.72917 31.819718,155.83134 48.387826,126.63079 86.448178,88.533712 140.44236,34.487433 191.01273,13.982864 289.13158,6.3524809 c 68.63351,-5.3374046 369.31995,-5.2996846 431.2074,0.054093 90.22411,7.8051371 146.00157,31.7577341 195.85255,84.1052571 31.72936,33.318399 51.32326,66.873589 64.01453,109.627009 13.80483,46.50482 16.1864,100.32524 14.58136,329.52218 -1.50462,214.86309 -1.97039,226.005 -10.76831,257.60983 -15.90466,57.13432 -32.38169,86.10546 -70.46729,123.90084 -55.13551,54.71543 -104.45246,74.84047 -201.97767,82.42225 -63.61233,4.94534 -389.06358,4.59466 -442.50635,-0.47678 z m 411.01695,-84.05568 c 100.31966,-5.38135 140.3658,-19.0047 178.96813,-60.88326 21.7553,-23.60169 33.0047,-45.37411 42.47021,-82.19805 6.57708,-25.58708 7.37263,-54.14127 7.3514,-263.86153 C 908.85339,293.55056 908.02581,263.7325 901.55847,238.51237 882.74784,165.15832 843.59606,122.18014 776.73699,101.49178 741.27864,90.519831 618.92941,85.667864 444.91525,88.332822 269.45617,91.019911 235.0524,94.516394 192.53242,113.98269 c -46.23928,21.16904 -81.0362,66.22812 -95.222725,123.30545 -7.218555,29.04275 -10.7515,414.13271 -4.397051,479.27754 6.955699,71.30873 22.926136,109.94021 58.876916,142.41962 36.18283,32.68898 73.34748,45.48169 144.82061,49.84966 73.23099,4.47538 301.75013,4.61038 383.47458,0.22669 z"
     id="path1562" />
  <path
     style="fill:#161614;stroke-width:4.23729;fill-opacity:1"
     d="M 478.81356,753.82873 C 378.12376,737.47746 312.2948,691.60653 271.50464,609.37164 209.60256,484.57414 263.61071,332.7045 391.78275,271.15245 430.4583,252.57929 455.77005,246.90875 500,246.90875 c 44.22995,0 69.5417,5.67054 108.21725,24.2437 54.50241,26.1737 92.93406,64.34899 120.27813,119.47591 62.55657,126.11702 5.7589,281.15995 -124.68182,340.34889 -37.48898,17.01106 -95.57501,27.62987 -125,22.85148 z m 94.32379,-102.58906 c 35.59751,-17.52459 70.70353,-54.52553 84.05607,-88.59314 13.52743,-34.5138 13.52743,-90.77926 0,-125.29306 -13.411,-34.21678 -48.44466,-71.0617 -84.39806,-88.7615 -26.36043,-12.9772 -30.92358,-13.84621 -72.70626,-13.84621 -41.1479,0 -46.7014,1.01421 -72.123,13.17147 -80.85165,38.66533 -116.63164,129.44679 -84.67885,214.84828 10.51678,28.10861 42.93248,65.75256 70.56508,81.94634 30.7537,18.02287 50.97014,22.67561 92.9347,21.38853 33.53553,-1.02856 42.19115,-2.96719 66.35032,-14.86071 z"
     id="path1771" />
  <path
     style="fill:#161614;stroke-width:4.23729;fill-opacity:1"
     d="m 736.85544,280.63588 c -37.49946,-25.05127 -36.64178,-73.10827 1.72225,-96.5003 36.71683,-22.38767 83.47499,3.56273 83.44037,46.30874 -0.0384,47.43796 -47.45375,75.38272 -85.16262,50.19156 z"
     id="path1773" />
  <path
     style="fill:#161614;stroke-width:0.197034;fill-opacity:1"
     d="m 494.75206,756.58457 c -46.88217,-1.12617 -90.74761,-14.14289 -130.23939,-38.64751 -25.54686,-15.85181 -48.82595,-36.85983 -67.40503,-60.82909 -12.88673,-16.62546 -23.87805,-35.08971 -32.19466,-54.08366 -1.21192,-2.76784 -4.4342,-10.60212 -4.4342,-10.78078 0,-0.0408 0.72309,-0.0484 1.60685,-0.0169 l 1.60686,0.0572 1.99617,4.63029 c 2.63684,6.11638 3.58237,8.13615 6.82565,14.58051 26.20042,52.05985 62.75905,89.20459 111.60323,113.39244 22.913,11.34662 47.37353,19.54596 76.64617,25.69233 7.57373,1.59025 17.89141,3.38672 22.16632,3.8595 14.5288,1.60679 36.68236,-0.0983 59.55348,-4.58378 l 2.90625,-0.56996 v 1.62958 c 0,1.38177 -0.0524,1.6451 -0.34481,1.73159 -1.25546,0.37141 -10.66493,1.73244 -16.40458,2.37285 -10.49503,1.17098 -24.11537,1.80014 -33.88831,1.56539 z"
     id="path1782" />
  <path
     style="fill:#161614;stroke-width:0.016757;fill-opacity:1"
     d="m 360.36819,711.47627 c -6.50618,-4.15703 -12.94,-8.73753 -19.0358,-13.55235 -1.88126,-1.48593 -4.4417,-3.57525 -4.39316,-3.58482 0.0158,-0.003 0.32241,0.23824 0.73548,0.57886 7.07235,5.83201 14.54421,11.28409 22.26636,16.24735 0.85659,0.55055 0.80225,0.51427 0.77018,0.51427 -0.0137,0 -0.16806,-0.0915 -0.34306,-0.20331 z"
     id="path1784" />
  <path
     style="fill:#161614;stroke-width:0.016757"
     d=""
     id="path1786" />
  <path
     style="fill:#161614;stroke-width:0.016757"
     d=""
     id="path1788" />
  <path
     style="fill:#161614;stroke-width:0.835411;fill-opacity:1"
     d="m 486.98885,756.17158 c -0.1991,-0.17647 -3.93339,-0.56003 -8.29841,-0.85237 -4.36502,-0.29235 -10.19201,-0.88357 -12.94887,-1.31384 -2.75685,-0.43027 -6.32823,-0.97622 -7.9364,-1.21322 -17.48254,-2.57645 -42.07514,-9.83931 -60.14958,-17.76379 -5.43749,-2.384 -26.30729,-12.95124 -27.44881,-13.89847 -0.62335,-0.51726 -1.8211,-1.33108 -2.66168,-1.8085 -10.82309,-6.14713 -23.50381,-15.36278 -36.30468,-26.38424 -11.49656,-9.89844 -25.27446,-24.5487 -33.37227,-35.48526 -1.35414,-1.82884 -2.70526,-3.51313 -3.00249,-3.74287 -0.72561,-0.56086 -12.86955,-18.46237 -13.60132,-20.04986 -0.3177,-0.68921 -1.51485,-2.75685 -2.66033,-4.59476 -2.55899,-4.10582 -13.78623,-26.49302 -15.29544,-30.4992 -0.60444,-1.60448 -1.45348,-3.57512 -1.88675,-4.3792 -0.61337,-1.13829 -0.46253,-1.45781 0.68127,-1.44317 1.05223,0.0134 2.49384,2.35815 5.08085,8.26372 8.16086,18.6294 22.62913,42.45917 36.05613,59.38576 8.21037,10.35032 25.92281,28.20227 35.93675,36.21982 11.5972,9.28516 40.93514,28.0349 40.93514,26.16146 0,-0.23406 -3.16076,-2.1485 -7.02391,-4.2543 -41.49902,-22.62113 -76.85771,-60.54646 -100.53615,-107.83393 -13.77034,-27.50029 -22.44393,-57.79833 -25.32814,-88.47464 -1.39267,-14.81241 -0.57267,-43.53766 1.65969,-58.13997 8.30981,-54.35616 33.01001,-103.15594 71.89413,-142.04006 20.32052,-20.32052 42.75831,-36.35518 68.89751,-49.23604 40.13708,-19.77874 63.95595,-25.2251 110.31833,-25.2251 45.01692,0 68.80901,5.22459 107.03433,23.50403 46.83671,22.39742 82.75372,54.46459 108.56131,96.92492 26.92969,44.30647 39.23776,89.73517 37.68545,139.09591 -2.90852,92.48671 -56.46487,176.53801 -139.13246,218.3544 -19.22592,9.72519 -42.94765,18.02735 -63.80071,22.32903 -4.0125,0.82771 -6.87122,1.76712 -6.35271,2.08758 0.51851,0.32046 0.69114,1.23829 0.38364,2.03964 -0.30751,0.80135 -0.75013,1.26599 -0.98359,1.03252 -0.23346,-0.23346 -2.01031,-0.12841 -3.94854,0.23346 -1.93822,0.36188 -5.77966,0.90314 -8.53652,1.20282 -2.75685,0.29968 -5.9523,0.69972 -7.10099,0.88898 -1.14869,0.18926 -9.23129,0.49906 -17.96133,0.68843 -9.33756,0.20255 -13.2931,0.0971 -9.60723,-0.2561 l 6.26558,-0.60041 -6.72506,-0.15051 c -3.69878,-0.0828 -7.10725,0.23169 -7.57439,0.69883 -0.46713,0.46713 -1.01223,0.70495 -1.21135,0.5285 z m -3.70365,-2.21295 c -14.11602,-1.708 -13.87663,-1.69471 -8.35411,-0.46402 2.75686,0.61436 6.89214,1.10656 9.18952,1.09377 l 4.17706,-0.0232 -5.01247,-0.6065 z m 28.19512,0.23078 c -1.4933,-0.18531 -3.93687,-0.18531 -5.43017,0 -1.4933,0.18532 -0.27151,0.33694 2.71508,0.33694 2.9866,0 4.20839,-0.15162 2.71509,-0.33694 z m 8.35411,-0.82065 c -1.03382,-0.19913 -2.72553,-0.19913 -3.75935,0 -1.03382,0.19912 -0.18797,0.36204 1.87967,0.36204 2.06765,0 2.9135,-0.16292 1.87968,-0.36204 z m 10.23378,-1.03332 c 2.14358,-0.44339 2.59286,-0.70838 1.25312,-0.73912 -1.14869,-0.0264 -3.59227,0.26311 -5.43017,0.64326 -2.14358,0.44339 -2.59286,0.70838 -1.25312,0.73912 1.14869,0.0264 3.59227,-0.26311 5.43017,-0.64326 z m -65.16205,-1.3502 c -2.75685,-0.62208 -5.57637,-1.1028 -6.26558,-1.06827 -1.95955,0.0982 6.84603,2.21081 9.18952,2.20474 1.14869,-0.003 -0.16708,-0.51438 -2.92394,-1.13647 z m 75.18698,-0.36855 c 2.23557,-0.56886 2.28068,-0.63773 0.41771,-0.63773 -1.14869,0 -3.21633,0.28698 -4.59476,0.63773 -2.23557,0.56885 -2.28068,0.63773 -0.41771,0.63773 1.14869,0 3.21633,-0.28698 4.59476,-0.63773 z m -84.7942,-1.67082 c -1.14869,-0.36788 -2.8404,-0.66887 -3.75935,-0.66887 -1.32302,0 -1.23606,0.13924 0.4177,0.66887 1.14869,0.36787 2.8404,0.66886 3.75935,0.66886 1.32302,0 1.23606,-0.13924 -0.4177,-0.66886 z m -6.07413,-1.34014 c -0.27761,-0.2776 -0.99815,-0.30728 -1.60121,-0.0659 -0.66643,0.26668 -0.46848,0.46464 0.50473,0.50472 0.88066,0.0363 1.37408,-0.16117 1.09648,-0.43877 z m -3.34165,-0.83542 c -0.2776,-0.27759 -0.99815,-0.30727 -1.6012,-0.0659 -0.66644,0.26668 -0.46849,0.46464 0.50473,0.50472 0.88065,0.0363 1.37407,-0.16117 1.09647,-0.43877 z m -4.3685,-1.11067 c -0.91895,-0.37073 -2.9866,-0.89604 -4.59476,-1.16735 -2.88266,-0.48631 -2.87677,-0.47695 0.4177,0.66283 3.58498,1.2403 7.03309,1.65677 4.17706,0.50452 z m -10.44264,-2.97936 c -1.60816,-0.61929 -3.48784,-1.126 -4.17705,-1.126 -0.68922,0 0.0627,0.50671 1.67082,1.126 1.60816,0.6193 3.48784,1.126 4.17705,1.126 0.68922,0 -0.0627,-0.5067 -1.67082,-1.126 z m -9.95795,-2.98233 c -2.49029,-0.88392 -4.67542,-1.45951 -4.85583,-1.2791 -0.42461,0.42461 6.48957,2.87489 8.13049,2.88133 0.68922,0.003 -0.78439,-0.71831 -3.27466,-1.60223 z m -8.4907,-2.77286 c -0.19145,-0.17876 -4.55014,-2.04 -9.68598,-4.1361 -5.13585,-2.09608 -12.03518,-5.1694 -15.33187,-6.82958 -3.29668,-1.66019 -6.15368,-2.85882 -6.34887,-2.66362 -0.4763,0.4763 8.81284,4.93337 20.57599,9.87269 8.58439,3.60456 11.84272,4.73889 10.79073,3.75661 z M 526.30886,665.3055 c 17.11147,-1.38742 25.82432,-3.77292 42.18825,-11.55076 24.11473,-11.46182 45.79831,-28.41325 63.18244,-49.3937 25.96526,-31.3368 35.81375,-60.03705 35.81375,-104.36762 0,-44.34856 -9.84576,-73.02726 -35.84276,-104.40273 -17.42715,-21.03261 -39.22071,-37.9828 -63.98884,-49.76804 -22.10181,-10.51654 -23.99347,-10.82288 -66.83287,-10.82288 -44.20892,0 -47.20364,0.48902 -70.73331,11.55043 -53.98338,25.37785 -89.1406,72.60672 -97.23519,130.62208 -1.89125,13.55493 -1.29547,40.18891 1.19382,53.36867 3.016,15.96844 7.70842,30.65867 13.53376,42.3691 12.07742,24.27877 38.75592,54.23106 61.76343,69.34259 9.1009,5.97755 30.16832,16.06063 38.63918,18.49308 20.38228,5.85292 44.82105,7.27576 78.31834,4.55978 z"
     id="path1801" />
</svg>
